<svg width="44" height="44" viewBox="0 0 44 44" fill="none" xmlns="http://www.w3.org/2000/svg">
<path d="M22 34.293C20.3906 34.293 18.875 33.9844 17.4531 33.3672C16.0391 32.7578 14.7891 31.9141 13.7031 30.8359C12.625 29.75 11.7773 28.5 11.1602 27.0859C10.5508 25.6641 10.2461 24.1484 10.2461 22.5391C10.2461 20.9297 10.5508 19.418 11.1602 18.0039C11.7773 16.582 12.625 15.332 13.7031 14.2539C14.7812 13.168 16.0273 12.3203 17.4414 11.7109C18.8633 11.0938 20.3789 10.7852 21.9883 10.7852C23.5977 10.7852 25.1133 11.0938 26.5352 11.7109C27.957 12.3203 29.207 13.168 30.2852 14.2539C31.3633 15.332 32.2109 16.582 32.8281 18.0039C33.4453 19.418 33.7539 20.9297 33.7539 22.5391C33.7539 24.1484 33.4453 25.6641 32.8281 27.0859C32.2109 28.5 31.3633 29.75 30.2852 30.8359C29.207 31.9141 27.957 32.7578 26.5352 33.3672C25.1211 33.9844 23.6094 34.293 22 34.293ZM22 32.7812C23.4141 32.7812 24.7383 32.5156 25.9727 31.9844C27.2148 31.4531 28.3047 30.7188 29.2422 29.7812C30.1875 28.8438 30.9219 27.7578 31.4453 26.5234C31.9766 25.2812 32.2422 23.9531 32.2422 22.5391C32.2422 21.125 31.9766 19.8008 31.4453 18.5664C30.9141 17.3242 30.1797 16.2344 29.2422 15.2969C28.3047 14.3516 27.2148 13.6172 25.9727 13.0938C24.7383 12.5625 23.4102 12.2969 21.9883 12.2969C20.5742 12.2969 19.2461 12.5625 18.0039 13.0938C16.7695 13.6172 15.6836 14.3516 14.7461 15.2969C13.8164 16.2344 13.0859 17.3242 12.5547 18.5664C12.0312 19.8008 11.7695 21.125 11.7695 22.5391C11.7695 23.9531 12.0312 25.2812 12.5547 26.5234C13.0859 27.7578 13.8203 28.8438 14.7578 29.7812C15.6953 30.7188 16.7812 31.4531 18.0156 31.9844C19.25 32.5156 20.5781 32.7812 22 32.7812ZM29.957 30.168C29.2461 30.8789 28.4375 31.4844 27.5312 31.9844C26.625 32.4922 25.6914 32.8789 24.7305 33.1445C23.7773 33.4102 22.8672 33.543 22 33.543C21.1484 33.543 20.2383 33.4062 19.2695 33.1328C18.3008 32.8672 17.3594 32.4805 16.4453 31.9727C15.5312 31.4727 14.7305 30.8711 14.043 30.168L14.0664 30.0508C14.2852 29.4961 14.7539 28.9414 15.4727 28.3867C16.1992 27.832 17.1172 27.3711 18.2266 27.0039C19.3359 26.6367 20.5938 26.4531 22 26.4531C23.4062 26.4531 24.668 26.6367 25.7852 27.0039C26.9023 27.3711 27.8164 27.8359 28.5273 28.3984C29.2461 28.9531 29.7148 29.5117 29.9336 30.0742L29.957 30.168ZM22 24.4492C21.25 24.4414 20.5742 24.2461 19.9727 23.8633C19.3711 23.4727 18.8945 22.9453 18.543 22.2812C18.1914 21.6172 18.0117 20.8672 18.0039 20.0312C17.9961 19.25 18.1719 18.5312 18.5312 17.875C18.8906 17.2188 19.3711 16.6953 19.9727 16.3047C20.582 15.9062 21.2578 15.707 22 15.707C22.7422 15.707 23.4141 15.9062 24.0156 16.3047C24.6172 16.6953 25.0977 17.2188 25.457 17.875C25.8164 18.5312 25.9961 19.25 25.9961 20.0312C25.9961 20.8672 25.8203 21.6211 25.4688 22.293C25.1172 22.957 24.6367 23.4844 24.0273 23.875C23.4258 24.2578 22.75 24.4492 22 24.4492Z" fill="white"/>
</svg>
