<svg width="24" height="25" viewBox="0 0 24 25" fill="none" xmlns="http://www.w3.org/2000/svg">
<path d="M12 24.293C10.3906 24.293 8.875 23.9844 7.45312 23.3672C6.03906 22.7578 4.78906 21.9141 3.70312 20.8359C2.625 19.75 1.77734 18.5 1.16016 17.0859C0.550781 15.6641 0.246094 14.1484 0.246094 12.5391C0.246094 10.9297 0.550781 9.41797 1.16016 8.00391C1.77734 6.58203 2.625 5.33203 3.70312 4.25391C4.78125 3.16797 6.02734 2.32031 7.44141 1.71094C8.86328 1.09375 10.3789 0.785156 11.9883 0.785156C13.5977 0.785156 15.1133 1.09375 16.5352 1.71094C17.957 2.32031 19.207 3.16797 20.2852 4.25391C21.3633 5.33203 22.2109 6.58203 22.8281 8.00391C23.4453 9.41797 23.7539 10.9297 23.7539 12.5391C23.7539 14.1484 23.4453 15.6641 22.8281 17.0859C22.2109 18.5 21.3633 19.75 20.2852 20.8359C19.207 21.9141 17.957 22.7578 16.5352 23.3672C15.1211 23.9844 13.6094 24.293 12 24.293ZM12 22.7812C13.4141 22.7812 14.7383 22.5156 15.9727 21.9844C17.2148 21.4531 18.3047 20.7188 19.2422 19.7812C20.1875 18.8438 20.9219 17.7578 21.4453 16.5234C21.9766 15.2812 22.2422 13.9531 22.2422 12.5391C22.2422 11.125 21.9766 9.80078 21.4453 8.56641C20.9141 7.32422 20.1797 6.23438 19.2422 5.29688C18.3047 4.35156 17.2148 3.61719 15.9727 3.09375C14.7383 2.5625 13.4102 2.29688 11.9883 2.29688C10.5742 2.29688 9.24609 2.5625 8.00391 3.09375C6.76953 3.61719 5.68359 4.35156 4.74609 5.29688C3.81641 6.23438 3.08594 7.32422 2.55469 8.56641C2.03125 9.80078 1.76953 11.125 1.76953 12.5391C1.76953 13.9531 2.03125 15.2812 2.55469 16.5234C3.08594 17.7578 3.82031 18.8438 4.75781 19.7812C5.69531 20.7188 6.78125 21.4531 8.01562 21.9844C9.25 22.5156 10.5781 22.7812 12 22.7812ZM19.957 20.168C19.2461 20.8789 18.4375 21.4844 17.5312 21.9844C16.625 22.4922 15.6914 22.8789 14.7305 23.1445C13.7773 23.4102 12.8672 23.543 12 23.543C11.1484 23.543 10.2383 23.4062 9.26953 23.1328C8.30078 22.8672 7.35938 22.4805 6.44531 21.9727C5.53125 21.4727 4.73047 20.8711 4.04297 20.168L4.06641 20.0508C4.28516 19.4961 4.75391 18.9414 5.47266 18.3867C6.19922 17.832 7.11719 17.3711 8.22656 17.0039C9.33594 16.6367 10.5938 16.4531 12 16.4531C13.4062 16.4531 14.668 16.6367 15.7852 17.0039C16.9023 17.3711 17.8164 17.8359 18.5273 18.3984C19.2461 18.9531 19.7148 19.5117 19.9336 20.0742L19.957 20.168ZM12 14.4492C11.25 14.4414 10.5742 14.2461 9.97266 13.8633C9.37109 13.4727 8.89453 12.9453 8.54297 12.2812C8.19141 11.6172 8.01172 10.8672 8.00391 10.0312C7.99609 9.25 8.17188 8.53125 8.53125 7.875C8.89062 7.21875 9.37109 6.69531 9.97266 6.30469C10.582 5.90625 11.2578 5.70703 12 5.70703C12.7422 5.70703 13.4141 5.90625 14.0156 6.30469C14.6172 6.69531 15.0977 7.21875 15.457 7.875C15.8164 8.53125 15.9961 9.25 15.9961 10.0312C15.9961 10.8672 15.8203 11.6211 15.4688 12.293C15.1172 12.957 14.6367 13.4844 14.0273 13.875C13.4258 14.2578 12.75 14.4492 12 14.4492Z" fill="#090909"/>
</svg>
