<svg width="20" height="20" viewBox="0 0 20 20" fill="none" xmlns="http://www.w3.org/2000/svg">
<path fill-rule="evenodd" clip-rule="evenodd" d="M10 0C11.1046 0 12 0.712135 12 1.5906V2.23231C14.6828 2.92284 17 4.97554 17 7.95298V14.1107H18.5C19.0523 14.1107 19.5 14.5584 19.5 15.1107C19.5 15.663 19.0523 16.1107 18.5 16.1107H17V16.3154H15H5H3V16.1107H1C0.447715 16.1107 0 15.663 0 15.1107C0 14.5584 0.447715 14.1107 1 14.1107H3V7.95298C3 4.97554 5.31724 2.92284 8 2.23231V1.5906C8 0.712135 8.89543 0 10 0ZM5 12.3154V14.1107H15V12.3154V7.95298C15 5.75683 12.7614 3.97649 10 3.97649C7.23858 3.97649 5 5.75683 5 7.95298V12.3154Z" fill="#090909"/>
<path d="M7 16.7013C7 18.019 8.34315 19.0872 10 19.0872C11.6569 19.0872 13 18.019 13 16.7013H7Z" fill="#090909"/>
</svg>
