<svg width="44" height="44" viewBox="0 0 44 44" fill="none" xmlns="http://www.w3.org/2000/svg">
<path d="M11.1133 29.3125C11.1133 28.9141 11.2227 28.5352 11.4414 28.1758C11.6602 27.8086 11.9297 27.4531 12.25 27.1094C12.5781 26.7578 12.9062 26.4102 13.2344 26.0664C13.5469 25.7227 13.7812 25.2773 13.9375 24.7305C14.0938 24.1758 14.207 23.582 14.2773 22.9492C14.3477 22.3164 14.418 21.6875 14.4883 21.0625C14.543 19.7344 14.7227 18.5508 15.0273 17.5117C15.3398 16.4727 15.8047 15.6016 16.4219 14.8984C17.0391 14.1953 17.8438 13.6836 18.8359 13.3633C19 12.5742 19.3633 11.9219 19.9258 11.4062C20.4961 10.8906 21.1875 10.6328 22 10.6328C22.8125 10.6328 23.5 10.8906 24.0625 11.4062C24.6328 11.9219 25 12.5742 25.1641 13.3633C26.1562 13.6836 26.9609 14.1953 27.5781 14.8984C28.1953 15.6016 28.6562 16.4727 28.9609 17.5117C29.2734 18.5508 29.4609 19.7344 29.5234 21.0625C29.5859 21.6875 29.6523 22.3164 29.7227 22.9492C29.793 23.582 29.9062 24.1758 30.0625 24.7305C30.2188 25.2773 30.457 25.7227 30.7773 26.0664C31.0977 26.4102 31.4219 26.7578 31.75 27.1094C32.0781 27.4531 32.3477 27.8086 32.5586 28.1758C32.7773 28.5352 32.8867 28.9141 32.8867 29.3125C32.8867 29.6562 32.7656 29.9297 32.5234 30.1328C32.2812 30.3359 31.9492 30.4375 31.5273 30.4375H25.9844C25.9609 31.1797 25.7734 31.8516 25.4219 32.4531C25.0781 33.0625 24.6094 33.5469 24.0156 33.9062C23.4297 34.2656 22.7578 34.4453 22 34.4453C21.2422 34.4453 20.5664 34.2617 19.9727 33.8945C19.3867 33.5352 18.9219 33.0547 18.5781 32.4531C18.2344 31.8516 18.0508 31.1797 18.0273 30.4375H12.4727C12.0508 30.4375 11.7188 30.3359 11.4766 30.1328C11.2344 29.9297 11.1133 29.6562 11.1133 29.3125ZM12.8359 29.0781H31.1641V28.9492C31.1172 28.793 31.0078 28.6016 30.8359 28.375C30.6719 28.1484 30.4766 27.9102 30.25 27.6602C30.0234 27.4102 29.7969 27.1641 29.5703 26.9219C29.2969 26.6328 29.0781 26.2891 28.9141 25.8906C28.75 25.4922 28.6172 25.0469 28.5156 24.5547C28.4141 24.0625 28.332 23.5352 28.2695 22.9727C28.207 22.4102 28.1484 21.8203 28.0938 21.2031C28.0156 19.7656 27.8203 18.5977 27.5078 17.6992C27.2031 16.793 26.793 16.1016 26.2773 15.625C25.7617 15.1484 25.1641 14.8164 24.4844 14.6289C24.3203 14.5898 24.1875 14.5273 24.0859 14.4414C23.9922 14.3555 23.9375 14.2305 23.9219 14.0664C23.8828 13.4648 23.6953 12.9648 23.3594 12.5664C23.0234 12.168 22.5703 11.9688 22 11.9688C21.4297 11.9688 20.9766 12.168 20.6406 12.5664C20.3125 12.9648 20.125 13.4648 20.0781 14.0664C20.0625 14.2305 20.0039 14.3555 19.9023 14.4414C19.8086 14.5273 19.6797 14.5898 19.5156 14.6289C18.8281 14.8164 18.2266 15.1484 17.7109 15.625C17.2031 16.1016 16.793 16.793 16.4805 17.6992C16.1758 18.5977 15.9844 19.7656 15.9062 21.2031C15.8516 21.8203 15.793 22.4102 15.7305 22.9727C15.668 23.5352 15.5859 24.0625 15.4844 24.5547C15.3828 25.0469 15.2461 25.4922 15.0742 25.8906C14.9102 26.2891 14.6953 26.6328 14.4297 26.9219C14.2031 27.1641 13.9766 27.4102 13.75 27.6602C13.5234 27.9102 13.3242 28.1484 13.1523 28.375C12.9883 28.6016 12.8828 28.793 12.8359 28.9492V29.0781ZM19.4219 30.4375C19.4688 31.2734 19.7305 31.9336 20.207 32.418C20.6836 32.9102 21.2812 33.1562 22 33.1562C22.7266 33.1562 23.3242 32.9102 23.793 32.418C24.2695 31.9336 24.5312 31.2734 24.5781 30.4375H19.4219Z" fill="white"/>
</svg>
