<svg width="52" height="52" viewBox="0 0 52 52" fill="none" xmlns="http://www.w3.org/2000/svg">
<g filter="url(#filter0_b_494_1339)">
<circle cx="26" cy="26" r="26" fill="#EDBEA4"/>
</g>
<path d="M14.5593 30.7095C14.2011 31.0698 14 31.5572 14 32.0653C14 32.5734 14.2011 33.0609 14.5593 33.4212L18.5788 37.4408C18.9391 37.799 19.4266 38 19.9347 38C20.4428 38 20.9302 37.799 21.2906 37.4408L28.4257 30.3056L21.6944 23.5743L14.5593 30.7095Z" stroke="white" stroke-linecap="round" stroke-linejoin="round"/>
<path d="M22.7334 24.6128L33.792 13.5542C34.0624 13.2874 34.4058 13.1066 34.7789 13.0347C35.152 12.9629 35.538 13.0031 35.8883 13.1504C36.2395 13.2947 36.5401 13.5397 36.7523 13.8545C36.9645 14.1694 37.0788 14.54 37.0807 14.9197V19.0931C37.0822 19.3463 37.0338 19.5972 36.9381 19.8315C36.8424 20.0659 36.7013 20.279 36.5229 20.4586L27.4645 29.344M27.5415 19.8047L32.3495 24.6128" stroke="white" stroke-linecap="round" stroke-linejoin="round"/>
<defs>
<filter id="filter0_b_494_1339" x="-20" y="-20" width="92" height="92" filterUnits="userSpaceOnUse" color-interpolation-filters="sRGB">
<feFlood flood-opacity="0" result="BackgroundImageFix"/>
<feGaussianBlur in="BackgroundImageFix" stdDeviation="10"/>
<feComposite in2="SourceAlpha" operator="in" result="effect1_backgroundBlur_494_1339"/>
<feBlend mode="normal" in="SourceGraphic" in2="effect1_backgroundBlur_494_1339" result="shape"/>
</filter>
</defs>
</svg>
