<svg width="52" height="73" viewBox="0 0 52 73" fill="none" xmlns="http://www.w3.org/2000/svg">
<path d="M14.7754 39.9184C14.2788 40.4661 14 41.2071 14 41.9794C14 42.7516 14.2788 43.4926 14.7754 44.0403L20.3482 50.15C20.8478 50.6944 21.5236 51 22.2281 51C22.9325 51 23.6083 50.6944 24.1079 50.15L34.0004 39.3045L24.6679 29.073L14.7754 39.9184Z" stroke="#24446B" stroke-width="2" stroke-linecap="round" stroke-linejoin="round"/>
<path d="M26.1084 30.6514L41.4404 13.8425C41.8154 13.4368 42.2915 13.162 42.8088 13.0528C43.326 12.9435 43.8612 13.0047 44.3468 13.2286C44.8338 13.4479 45.2506 13.8203 45.5448 14.2989C45.839 14.7775 45.9974 15.3409 46 15.918V22.2615C46.0022 22.6463 45.935 23.0277 45.8023 23.3839C45.6696 23.7401 45.474 24.064 45.2267 24.3371L32.6678 37.8427M32.7745 23.3432L39.4406 30.6514" stroke="#24446B" stroke-width="2" stroke-linecap="round" stroke-linejoin="round"/>
<path d="M18.6859 62.843H19.5989V66.858H18.6859V62.843ZM22.2389 62.843H23.1629V66.858H22.2389V62.843ZM16.4199 62.722H25.4399V63.47H16.4199V62.722ZM17.5529 57.299H18.4659V58.63H23.3829V57.299H24.2849V61.556H17.5529V57.299ZM18.4659 59.378V60.797H23.3829V59.378H18.4659ZM27.177 63.712H27.969C29.828 63.712 31.126 63.657 32.655 63.404L32.743 64.141C31.181 64.416 29.861 64.471 27.969 64.471H27.177V63.712ZM27.177 57.816H31.995V58.575H28.079V63.976H27.177V57.816ZM27.859 60.599H31.632V61.336H27.859V60.599ZM33.788 56.914H34.701V66.858H33.788V56.914Z" fill="#24446B"/>
</svg>
