<svg width="44" height="44" viewBox="0 0 44 44" fill="none" xmlns="http://www.w3.org/2000/svg">
<path d="M15.4141 34.8203C15.0859 34.8203 14.8281 34.7109 14.6406 34.4922C14.4531 34.2812 14.3594 33.9883 14.3594 33.6133V13.375C14.3594 12.3359 14.6211 11.5547 15.1445 11.0312C15.668 10.5 16.4414 10.2344 17.4648 10.2344H26.5352C27.5586 10.2344 28.332 10.5 28.8555 11.0312C29.3789 11.5547 29.6406 12.3359 29.6406 13.375V33.6133C29.6406 33.9883 29.5469 34.2812 29.3594 34.4922C29.1719 34.7109 28.9141 34.8203 28.5859 34.8203C28.3516 34.8203 28.1328 34.7461 27.9297 34.5977C27.7344 34.4492 27.4414 34.1875 27.0508 33.8125L22.0938 28.8203C22.0312 28.7578 21.9688 28.7578 21.9062 28.8203L16.9492 33.8125C16.5586 34.1953 16.2617 34.457 16.0586 34.5977C15.8555 34.7461 15.6406 34.8203 15.4141 34.8203ZM16.1523 32.4883L21.4727 27.168C21.6289 27.0195 21.8047 26.9453 22 26.9453C22.1953 26.9453 22.3711 27.0195 22.5273 27.168L27.8477 32.4883C27.9414 32.5742 28.0273 32.6055 28.1055 32.582C28.1836 32.5664 28.2227 32.4961 28.2227 32.3711V13.3984C28.2227 12.8203 28.0742 12.3867 27.7773 12.0977C27.4805 11.8008 27.043 11.6523 26.4648 11.6523H17.5352C16.957 11.6523 16.5195 11.8008 16.2227 12.0977C15.9258 12.3867 15.7773 12.8203 15.7773 13.3984V32.3711C15.7773 32.4961 15.8164 32.5664 15.8945 32.582C15.9727 32.6055 16.0586 32.5742 16.1523 32.4883Z" fill="white"/>
</svg>
