<svg width="53" height="75" viewBox="0 0 53 75" fill="none" xmlns="http://www.w3.org/2000/svg">
<path d="M19.9094 15.4109H25.4547C25.4547 15.4109 25.4547 21.3034 31 21.3034C36.5453 21.3034 36.5453 15.4109 36.5453 15.4109H42.0906M42.0906 29.1599V45.6587C42.0906 45.9713 41.9738 46.271 41.7658 46.492C41.5578 46.7131 41.2757 46.8372 40.9815 46.8372H21.0185C20.7243 46.8372 20.4422 46.7131 20.2342 46.492C20.0262 46.271 19.9094 45.9713 19.9094 45.6587V29.1599M42.0906 15.4109L50.3032 18.9012C50.5762 19.0174 50.7947 19.2441 50.9105 19.5314C51.0262 19.8187 51.0299 20.1431 50.9206 20.4333L47.915 28.4195C47.8327 28.6381 47.6906 28.8254 47.507 28.9574C47.3235 29.0894 47.107 29.1599 46.8854 29.1599H42.0906M19.9094 15.4109L11.6968 18.9012C11.4238 19.0174 11.2053 19.2441 11.0895 19.5314C10.9738 19.8187 10.9701 20.1431 11.0794 20.4333L14.085 28.4195C14.1673 28.6381 14.3094 28.8254 14.493 28.9574C14.6765 29.0894 14.893 29.1599 15.1146 29.1599H19.9094" stroke="#24446B" stroke-width="2.3" stroke-linecap="round" stroke-linejoin="round"/>
<path d="M24.6539 57.629C26.2049 57.629 27.3159 58.586 27.3159 59.972C27.3159 61.369 26.2049 62.326 24.6539 62.326C23.1029 62.326 21.9809 61.369 21.9809 59.972C21.9809 58.586 23.1029 57.629 24.6539 57.629ZM24.6539 58.421C23.6199 58.421 22.8719 59.048 22.8719 59.972C22.8719 60.896 23.6199 61.534 24.6539 61.534C25.6769 61.534 26.4249 60.896 26.4249 59.972C26.4249 59.048 25.6769 58.421 24.6539 58.421ZM28.6139 56.903H29.5269V66.869H28.6139V56.903ZM21.6069 64.691L21.4749 63.932C23.2899 63.932 25.7979 63.921 27.9649 63.58L28.0419 64.251C25.8089 64.68 23.3779 64.691 21.6069 64.691ZM31.539 62.832H40.559V63.58H31.539V62.832ZM33.871 63.239H34.795V66.858H33.871V63.239ZM37.292 63.239H38.205V66.858H37.292V63.239ZM32.617 57.299H39.459V59.862H33.563V61.567H32.639V59.158H38.546V58.036H32.617V57.299ZM32.639 61.083H39.69V61.82H32.639V61.083Z" fill="#24446B"/>
</svg>
