<svg width="52" height="52" viewBox="0 0 52 52" fill="none" xmlns="http://www.w3.org/2000/svg">
<g filter="url(#filter0_b_496_1348)">
<circle cx="26" cy="26" r="26" fill="#EDBEA4"/>
</g>
<path d="M17.6821 15H21.841C21.841 15 21.841 19.125 26 19.125C30.159 19.125 30.159 15 30.159 15H34.318M34.318 24.625V36.175C34.318 36.3938 34.2303 36.6036 34.0743 36.7584C33.9183 36.9131 33.7068 37 33.4862 37H18.5138C18.2932 37 18.0817 36.9131 17.9257 36.7584C17.7697 36.6036 17.6821 36.3938 17.6821 36.175V24.625M34.318 15L40.4774 17.4434C40.6822 17.5247 40.846 17.6834 40.9328 17.8845C41.0197 18.0856 41.0224 18.3128 40.9404 18.5159L38.6863 24.1066C38.6245 24.2597 38.5179 24.3908 38.3803 24.4832C38.2427 24.5756 38.0803 24.625 37.9141 24.625H34.318M17.6821 15L11.5226 17.4434C11.3178 17.5247 11.154 17.6834 11.0672 17.8845C10.9803 18.0856 10.9776 18.3128 11.0596 18.5159L13.3137 24.1066C13.3755 24.2597 13.4821 24.3908 13.6197 24.4832C13.7573 24.5756 13.9197 24.625 14.0859 24.625H17.6821" stroke="white" stroke-width="1.5" stroke-linecap="round" stroke-linejoin="round"/>
<defs>
<filter id="filter0_b_496_1348" x="-20" y="-20" width="92" height="92" filterUnits="userSpaceOnUse" color-interpolation-filters="sRGB">
<feFlood flood-opacity="0" result="BackgroundImageFix"/>
<feGaussianBlur in="BackgroundImageFix" stdDeviation="10"/>
<feComposite in2="SourceAlpha" operator="in" result="effect1_backgroundBlur_496_1348"/>
<feBlend mode="normal" in="SourceGraphic" in2="effect1_backgroundBlur_496_1348" result="shape"/>
</filter>
</defs>
</svg>
