<svg width="52" height="73" viewBox="0 0 52 73" fill="none" xmlns="http://www.w3.org/2000/svg">
<path d="M16 17.1068H15.65V17.4568V36.4691V36.8191H16H46H46.35V36.4691V17.4568V17.1068H46H16ZM13.0167 14.35H48.9833V39.5759H13.0167V14.35ZM11.35 42.0043H50.65V44.7611H11.35V42.0043Z" fill="#24446B" stroke="#24446B" stroke-width="0.7"/>
<path d="M16.5807 59.653H19.0887V60.401H16.5807V59.653ZM18.5717 56.925H19.4847V64.207H18.5717V56.925ZM13.1377 65.89H19.7597V66.638H13.1377V65.89ZM13.1377 63.569H14.0507V66.275H13.1377V63.569ZM13.8417 58.157H14.5897V58.96C14.5897 60.764 13.4677 62.326 11.8067 62.942L11.3337 62.216C12.8187 61.688 13.8417 60.368 13.8417 58.96V58.157ZM14.0177 58.157H14.7547V58.949C14.7547 60.236 15.7227 61.49 17.1637 61.996L16.7017 62.711C15.0847 62.128 14.0177 60.632 14.0177 58.949V58.157ZM11.6197 57.728H16.9327V58.465H11.6197V57.728ZM23.8839 58.333H24.6099V59.95C24.6099 62.018 23.3449 64.152 21.7939 64.944L21.2659 64.218C22.6849 63.525 23.8839 61.633 23.8839 59.95V58.333ZM24.0489 58.333H24.7749V59.95C24.7749 61.523 25.8969 63.294 27.3379 63.976L26.8209 64.702C25.2479 63.921 24.0489 61.919 24.0489 59.95V58.333ZM21.6179 57.926H26.9749V58.696H21.6179V57.926ZM28.1519 56.914H29.0759V66.858H28.1519V56.914ZM28.8559 60.929H30.7039V61.699H28.8559V60.929ZM38.788 56.914H39.701V66.858H38.788V56.914ZM35.873 57.981H36.775C36.775 60.863 35.477 63.382 32.155 65.01L31.671 64.273C34.542 62.887 35.873 60.775 35.873 58.135V57.981ZM32.122 57.981H36.269V58.729H32.122V57.981ZM48.9071 56.914H49.8201V66.858H48.9071V56.914ZM45.9921 57.981H46.8941C46.8941 60.863 45.5961 63.382 42.2741 65.01L41.7901 64.273C44.6611 62.887 45.9921 60.775 45.9921 58.135V57.981ZM42.2411 57.981H46.3881V58.729H42.2411V57.981Z" fill="#24446B"/>
</svg>
