<svg width="58" height="73" viewBox="0 0 58 73" fill="none" xmlns="http://www.w3.org/2000/svg">
<mask id="path-1-inside-1_146_2912" fill="white">
<path d="M16.6127 13C15.0584 13 13.6421 13.965 13.2747 15.4424C12.865 17.0919 12.2695 19.9218 12.2695 22.5604C12.2692 23.9049 12.6194 25.2292 13.29 26.4192C13.9605 27.6091 14.9312 28.6288 16.1183 29.3904C16.7575 29.7996 17.0498 30.2993 17.0498 30.7059C17.0493 30.7485 17.0466 30.7911 17.0416 30.8334C16.9623 31.458 16.625 34.1222 16.3068 36.8807C15.9926 39.5933 15.684 42.5214 15.684 43.5934C15.684 44.9457 16.2595 46.2426 17.2841 47.1989C18.3086 48.1551 19.6982 48.6923 21.1471 48.6923C22.596 48.6923 23.9856 48.1551 25.0101 47.1989C26.0346 46.2426 26.6102 44.9457 26.6102 43.5934C26.6102 42.5226 26.3002 39.5933 25.9874 36.8807C25.6692 34.1222 25.3318 31.4567 25.2526 30.8321C25.2476 30.7898 25.2449 30.7473 25.2444 30.7047C25.2444 30.2993 25.5367 29.7996 26.1745 29.3904C27.3619 28.629 28.3328 27.6093 29.0036 26.4194C29.6744 25.2294 30.0248 23.905 30.0246 22.5604C30.0246 19.9205 29.4305 17.0906 29.0194 15.4424C28.652 13.965 27.2357 13 25.6815 13C24.8701 12.9989 24.0835 13.2611 23.4566 13.7419C22.7973 13.2605 21.9842 12.9993 21.1471 13C20.2757 13 19.474 13.2766 18.8376 13.7419C18.2106 13.2611 17.4241 12.9989 16.6127 13ZM24.903 16.276C24.903 16.0833 24.985 15.8985 25.131 15.7623C25.277 15.626 25.475 15.5495 25.6815 15.5495C26.0366 15.5495 26.2961 15.7611 26.3589 16.0198C26.755 17.612 27.2931 20.2162 27.2931 22.5604C27.2933 23.4915 27.0506 24.4086 26.5862 25.2325C26.1217 26.0565 25.4493 26.7625 24.6271 27.2897C23.5481 27.9818 22.5129 29.1673 22.5129 30.7059C22.5129 30.8479 22.522 30.9906 22.5402 31.1342C22.6194 31.755 22.9554 34.4103 23.2722 37.1535C23.5918 39.9413 23.8786 42.6947 23.8786 43.5934C23.8786 44.2696 23.5908 44.918 23.0786 45.3961C22.5663 45.8743 21.8715 46.1429 21.1471 46.1429C20.4226 46.1429 19.7278 45.8743 19.2156 45.3961C18.7033 44.918 18.4155 44.2696 18.4155 43.5934C18.4155 42.6947 18.701 39.9413 19.0219 37.1535C19.3388 34.4103 19.6748 31.755 19.754 31.1342C19.7722 30.9898 19.7813 30.847 19.7813 30.7059C19.7813 29.1673 18.7447 27.9818 17.6671 27.2897C16.8449 26.7625 16.1725 26.0565 15.708 25.2325C15.2435 24.4086 15.0009 23.4915 15.0011 22.5604C15.0011 20.2149 15.5392 17.612 15.9353 16.0198C15.9731 15.8807 16.0611 15.758 16.1845 15.6723C16.3079 15.5867 16.4591 15.5433 16.6127 15.5495C16.8192 15.5495 17.0172 15.626 17.1632 15.7623C17.3092 15.8985 17.3912 16.0833 17.3912 16.276V23.1978C17.3912 23.5359 17.5351 23.8601 17.7912 24.0992C18.0474 24.3382 18.3947 24.4725 18.757 24.4725C19.1192 24.4725 19.4666 24.3382 19.7227 24.0992C19.9789 23.8601 20.1227 23.5359 20.1227 23.1978V16.5055C20.1227 16.2519 20.2307 16.0088 20.4228 15.8295C20.6149 15.6502 20.8754 15.5495 21.1471 15.5495C21.4188 15.5495 21.6793 15.6502 21.8714 15.8295C22.0635 16.0088 22.1714 16.2519 22.1714 16.5055V23.1978C22.1714 23.5359 22.3153 23.8601 22.5714 24.0992C22.8276 24.3382 23.175 24.4725 23.5372 24.4725C23.8994 24.4725 24.2468 24.3382 24.5029 24.0992C24.7591 23.8601 24.903 23.5359 24.903 23.1978V16.276ZM34.8049 22.5604C34.8046 20.8112 35.505 19.125 36.7685 17.833C38.032 16.541 39.7673 15.7365 41.6337 15.5775V29.5714C41.6337 29.9271 41.7089 30.7289 41.8072 31.6849C41.9096 32.6754 42.0489 33.9259 42.1951 35.244V35.2478C42.5816 38.7036 42.9995 42.492 42.9995 43.5934C42.9995 44.2696 42.7117 44.918 42.1995 45.3961C41.6872 45.8743 40.9924 46.1429 40.268 46.1429C39.5435 46.1429 38.8487 45.8743 38.3365 45.3961C37.8242 44.918 37.5364 44.2696 37.5364 43.5934C37.5364 42.6833 37.826 39.6226 38.1483 36.5263C38.3819 34.2972 38.6255 32.0689 38.879 29.8417C38.8868 29.7743 38.8927 29.7067 38.8967 29.639C38.9066 29.4661 38.8785 29.2932 38.8144 29.1307C38.7503 28.9682 38.6514 28.8197 38.5237 28.6941C38.396 28.5685 38.2423 28.4685 38.0718 28.4002C37.9014 28.3318 37.7178 28.2966 37.5323 28.2967H35.4877C35.3066 28.2967 35.1329 28.2296 35.0049 28.11C34.8768 27.9905 34.8049 27.8284 34.8049 27.6593V22.5604ZM42.3166 13C39.5999 13 36.9945 14.0073 35.0735 15.8002C33.1525 17.5931 32.0733 20.0249 32.0733 22.5604V27.6593C32.0733 28.5045 32.433 29.3151 33.0734 29.9128C33.7137 30.5104 34.5822 30.8462 35.4877 30.8462H36.019C35.8161 32.6565 35.6198 34.4674 35.4304 36.279C35.1162 39.3001 34.8049 42.5252 34.8049 43.5934C34.8049 44.9457 35.3804 46.2426 36.405 47.1989C37.4295 48.1551 38.8191 48.6923 40.268 48.6923C41.7169 48.6923 43.1064 48.1551 44.131 47.1989C45.1555 46.2426 45.7311 44.9457 45.7311 43.5934C45.7311 42.3378 45.2981 38.4524 44.9307 35.1407L44.913 34.9852C44.78 33.8039 44.6511 32.6222 44.5265 31.4402C44.4199 30.4229 44.3653 29.7728 44.3653 29.5714V14.2747C44.3653 13.9367 44.2214 13.6124 43.9653 13.3734C43.7091 13.1343 43.3617 13 42.9995 13H42.3166Z"/>
</mask>
<path d="M16.6127 13C15.0584 13 13.6421 13.965 13.2747 15.4424C12.865 17.0919 12.2695 19.9218 12.2695 22.5604C12.2692 23.9049 12.6194 25.2292 13.29 26.4192C13.9605 27.6091 14.9312 28.6288 16.1183 29.3904C16.7575 29.7996 17.0498 30.2993 17.0498 30.7059C17.0493 30.7485 17.0466 30.7911 17.0416 30.8334C16.9623 31.458 16.625 34.1222 16.3068 36.8807C15.9926 39.5933 15.684 42.5214 15.684 43.5934C15.684 44.9457 16.2595 46.2426 17.2841 47.1989C18.3086 48.1551 19.6982 48.6923 21.1471 48.6923C22.596 48.6923 23.9856 48.1551 25.0101 47.1989C26.0346 46.2426 26.6102 44.9457 26.6102 43.5934C26.6102 42.5226 26.3002 39.5933 25.9874 36.8807C25.6692 34.1222 25.3318 31.4567 25.2526 30.8321C25.2476 30.7898 25.2449 30.7473 25.2444 30.7047C25.2444 30.2993 25.5367 29.7996 26.1745 29.3904C27.3619 28.629 28.3328 27.6093 29.0036 26.4194C29.6744 25.2294 30.0248 23.905 30.0246 22.5604C30.0246 19.9205 29.4305 17.0906 29.0194 15.4424C28.652 13.965 27.2357 13 25.6815 13C24.8701 12.9989 24.0835 13.2611 23.4566 13.7419C22.7973 13.2605 21.9842 12.9993 21.1471 13C20.2757 13 19.474 13.2766 18.8376 13.7419C18.2106 13.2611 17.4241 12.9989 16.6127 13ZM24.903 16.276C24.903 16.0833 24.985 15.8985 25.131 15.7623C25.277 15.626 25.475 15.5495 25.6815 15.5495C26.0366 15.5495 26.2961 15.7611 26.3589 16.0198C26.755 17.612 27.2931 20.2162 27.2931 22.5604C27.2933 23.4915 27.0506 24.4086 26.5862 25.2325C26.1217 26.0565 25.4493 26.7625 24.6271 27.2897C23.5481 27.9818 22.5129 29.1673 22.5129 30.7059C22.5129 30.8479 22.522 30.9906 22.5402 31.1342C22.6194 31.755 22.9554 34.4103 23.2722 37.1535C23.5918 39.9413 23.8786 42.6947 23.8786 43.5934C23.8786 44.2696 23.5908 44.918 23.0786 45.3961C22.5663 45.8743 21.8715 46.1429 21.1471 46.1429C20.4226 46.1429 19.7278 45.8743 19.2156 45.3961C18.7033 44.918 18.4155 44.2696 18.4155 43.5934C18.4155 42.6947 18.701 39.9413 19.0219 37.1535C19.3388 34.4103 19.6748 31.755 19.754 31.1342C19.7722 30.9898 19.7813 30.847 19.7813 30.7059C19.7813 29.1673 18.7447 27.9818 17.6671 27.2897C16.8449 26.7625 16.1725 26.0565 15.708 25.2325C15.2435 24.4086 15.0009 23.4915 15.0011 22.5604C15.0011 20.2149 15.5392 17.612 15.9353 16.0198C15.9731 15.8807 16.0611 15.758 16.1845 15.6723C16.3079 15.5867 16.4591 15.5433 16.6127 15.5495C16.8192 15.5495 17.0172 15.626 17.1632 15.7623C17.3092 15.8985 17.3912 16.0833 17.3912 16.276V23.1978C17.3912 23.5359 17.5351 23.8601 17.7912 24.0992C18.0474 24.3382 18.3947 24.4725 18.757 24.4725C19.1192 24.4725 19.4666 24.3382 19.7227 24.0992C19.9789 23.8601 20.1227 23.5359 20.1227 23.1978V16.5055C20.1227 16.2519 20.2307 16.0088 20.4228 15.8295C20.6149 15.6502 20.8754 15.5495 21.1471 15.5495C21.4188 15.5495 21.6793 15.6502 21.8714 15.8295C22.0635 16.0088 22.1714 16.2519 22.1714 16.5055V23.1978C22.1714 23.5359 22.3153 23.8601 22.5714 24.0992C22.8276 24.3382 23.175 24.4725 23.5372 24.4725C23.8994 24.4725 24.2468 24.3382 24.5029 24.0992C24.7591 23.8601 24.903 23.5359 24.903 23.1978V16.276ZM34.8049 22.5604C34.8046 20.8112 35.505 19.125 36.7685 17.833C38.032 16.541 39.7673 15.7365 41.6337 15.5775V29.5714C41.6337 29.9271 41.7089 30.7289 41.8072 31.6849C41.9096 32.6754 42.0489 33.9259 42.1951 35.244V35.2478C42.5816 38.7036 42.9995 42.492 42.9995 43.5934C42.9995 44.2696 42.7117 44.918 42.1995 45.3961C41.6872 45.8743 40.9924 46.1429 40.268 46.1429C39.5435 46.1429 38.8487 45.8743 38.3365 45.3961C37.8242 44.918 37.5364 44.2696 37.5364 43.5934C37.5364 42.6833 37.826 39.6226 38.1483 36.5263C38.3819 34.2972 38.6255 32.0689 38.879 29.8417C38.8868 29.7743 38.8927 29.7067 38.8967 29.639C38.9066 29.4661 38.8785 29.2932 38.8144 29.1307C38.7503 28.9682 38.6514 28.8197 38.5237 28.6941C38.396 28.5685 38.2423 28.4685 38.0718 28.4002C37.9014 28.3318 37.7178 28.2966 37.5323 28.2967H35.4877C35.3066 28.2967 35.1329 28.2296 35.0049 28.11C34.8768 27.9905 34.8049 27.8284 34.8049 27.6593V22.5604ZM42.3166 13C39.5999 13 36.9945 14.0073 35.0735 15.8002C33.1525 17.5931 32.0733 20.0249 32.0733 22.5604V27.6593C32.0733 28.5045 32.433 29.3151 33.0734 29.9128C33.7137 30.5104 34.5822 30.8462 35.4877 30.8462H36.019C35.8161 32.6565 35.6198 34.4674 35.4304 36.279C35.1162 39.3001 34.8049 42.5252 34.8049 43.5934C34.8049 44.9457 35.3804 46.2426 36.405 47.1989C37.4295 48.1551 38.8191 48.6923 40.268 48.6923C41.7169 48.6923 43.1064 48.1551 44.131 47.1989C45.1555 46.2426 45.7311 44.9457 45.7311 43.5934C45.7311 42.3378 45.2981 38.4524 44.9307 35.1407L44.913 34.9852C44.78 33.8039 44.6511 32.6222 44.5265 31.4402C44.4199 30.4229 44.3653 29.7728 44.3653 29.5714V14.2747C44.3653 13.9367 44.2214 13.6124 43.9653 13.3734C43.7091 13.1343 43.3617 13 42.9995 13H42.3166Z" fill="#24446B"/>
<path d="M16.6127 13C15.0584 13 13.6421 13.965 13.2747 15.4424C12.865 17.0919 12.2695 19.9218 12.2695 22.5604C12.2692 23.9049 12.6194 25.2292 13.29 26.4192C13.9605 27.6091 14.9312 28.6288 16.1183 29.3904C16.7575 29.7996 17.0498 30.2993 17.0498 30.7059C17.0493 30.7485 17.0466 30.7911 17.0416 30.8334C16.9623 31.458 16.625 34.1222 16.3068 36.8807C15.9926 39.5933 15.684 42.5214 15.684 43.5934C15.684 44.9457 16.2595 46.2426 17.2841 47.1989C18.3086 48.1551 19.6982 48.6923 21.1471 48.6923C22.596 48.6923 23.9856 48.1551 25.0101 47.1989C26.0346 46.2426 26.6102 44.9457 26.6102 43.5934C26.6102 42.5226 26.3002 39.5933 25.9874 36.8807C25.6692 34.1222 25.3318 31.4567 25.2526 30.8321C25.2476 30.7898 25.2449 30.7473 25.2444 30.7047C25.2444 30.2993 25.5367 29.7996 26.1745 29.3904C27.3619 28.629 28.3328 27.6093 29.0036 26.4194C29.6744 25.2294 30.0248 23.905 30.0246 22.5604C30.0246 19.9205 29.4305 17.0906 29.0194 15.4424C28.652 13.965 27.2357 13 25.6815 13C24.8701 12.9989 24.0835 13.2611 23.4566 13.7419C22.7973 13.2605 21.9842 12.9993 21.1471 13C20.2757 13 19.474 13.2766 18.8376 13.7419C18.2106 13.2611 17.4241 12.9989 16.6127 13ZM24.903 16.276C24.903 16.0833 24.985 15.8985 25.131 15.7623C25.277 15.626 25.475 15.5495 25.6815 15.5495C26.0366 15.5495 26.2961 15.7611 26.3589 16.0198C26.755 17.612 27.2931 20.2162 27.2931 22.5604C27.2933 23.4915 27.0506 24.4086 26.5862 25.2325C26.1217 26.0565 25.4493 26.7625 24.6271 27.2897C23.5481 27.9818 22.5129 29.1673 22.5129 30.7059C22.5129 30.8479 22.522 30.9906 22.5402 31.1342C22.6194 31.755 22.9554 34.4103 23.2722 37.1535C23.5918 39.9413 23.8786 42.6947 23.8786 43.5934C23.8786 44.2696 23.5908 44.918 23.0786 45.3961C22.5663 45.8743 21.8715 46.1429 21.1471 46.1429C20.4226 46.1429 19.7278 45.8743 19.2156 45.3961C18.7033 44.918 18.4155 44.2696 18.4155 43.5934C18.4155 42.6947 18.701 39.9413 19.0219 37.1535C19.3388 34.4103 19.6748 31.755 19.754 31.1342C19.7722 30.9898 19.7813 30.847 19.7813 30.7059C19.7813 29.1673 18.7447 27.9818 17.6671 27.2897C16.8449 26.7625 16.1725 26.0565 15.708 25.2325C15.2435 24.4086 15.0009 23.4915 15.0011 22.5604C15.0011 20.2149 15.5392 17.612 15.9353 16.0198C15.9731 15.8807 16.0611 15.758 16.1845 15.6723C16.3079 15.5867 16.4591 15.5433 16.6127 15.5495C16.8192 15.5495 17.0172 15.626 17.1632 15.7623C17.3092 15.8985 17.3912 16.0833 17.3912 16.276V23.1978C17.3912 23.5359 17.5351 23.8601 17.7912 24.0992C18.0474 24.3382 18.3947 24.4725 18.757 24.4725C19.1192 24.4725 19.4666 24.3382 19.7227 24.0992C19.9789 23.8601 20.1227 23.5359 20.1227 23.1978V16.5055C20.1227 16.2519 20.2307 16.0088 20.4228 15.8295C20.6149 15.6502 20.8754 15.5495 21.1471 15.5495C21.4188 15.5495 21.6793 15.6502 21.8714 15.8295C22.0635 16.0088 22.1714 16.2519 22.1714 16.5055V23.1978C22.1714 23.5359 22.3153 23.8601 22.5714 24.0992C22.8276 24.3382 23.175 24.4725 23.5372 24.4725C23.8994 24.4725 24.2468 24.3382 24.5029 24.0992C24.7591 23.8601 24.903 23.5359 24.903 23.1978V16.276ZM34.8049 22.5604C34.8046 20.8112 35.505 19.125 36.7685 17.833C38.032 16.541 39.7673 15.7365 41.6337 15.5775V29.5714C41.6337 29.9271 41.7089 30.7289 41.8072 31.6849C41.9096 32.6754 42.0489 33.9259 42.1951 35.244V35.2478C42.5816 38.7036 42.9995 42.492 42.9995 43.5934C42.9995 44.2696 42.7117 44.918 42.1995 45.3961C41.6872 45.8743 40.9924 46.1429 40.268 46.1429C39.5435 46.1429 38.8487 45.8743 38.3365 45.3961C37.8242 44.918 37.5364 44.2696 37.5364 43.5934C37.5364 42.6833 37.826 39.6226 38.1483 36.5263C38.3819 34.2972 38.6255 32.0689 38.879 29.8417C38.8868 29.7743 38.8927 29.7067 38.8967 29.639C38.9066 29.4661 38.8785 29.2932 38.8144 29.1307C38.7503 28.9682 38.6514 28.8197 38.5237 28.6941C38.396 28.5685 38.2423 28.4685 38.0718 28.4002C37.9014 28.3318 37.7178 28.2966 37.5323 28.2967H35.4877C35.3066 28.2967 35.1329 28.2296 35.0049 28.11C34.8768 27.9905 34.8049 27.8284 34.8049 27.6593V22.5604ZM42.3166 13C39.5999 13 36.9945 14.0073 35.0735 15.8002C33.1525 17.5931 32.0733 20.0249 32.0733 22.5604V27.6593C32.0733 28.5045 32.433 29.3151 33.0734 29.9128C33.7137 30.5104 34.5822 30.8462 35.4877 30.8462H36.019C35.8161 32.6565 35.6198 34.4674 35.4304 36.279C35.1162 39.3001 34.8049 42.5252 34.8049 43.5934C34.8049 44.9457 35.3804 46.2426 36.405 47.1989C37.4295 48.1551 38.8191 48.6923 40.268 48.6923C41.7169 48.6923 43.1064 48.1551 44.131 47.1989C45.1555 46.2426 45.7311 44.9457 45.7311 43.5934C45.7311 42.3378 45.2981 38.4524 44.9307 35.1407L44.913 34.9852C44.78 33.8039 44.6511 32.6222 44.5265 31.4402C44.4199 30.4229 44.3653 29.7728 44.3653 29.5714V14.2747C44.3653 13.9367 44.2214 13.6124 43.9653 13.3734C43.7091 13.1343 43.3617 13 42.9995 13H42.3166Z" fill="black" fill-opacity="0.2"/>
<path d="M16.6127 13C15.0584 13 13.6421 13.965 13.2747 15.4424C12.865 17.0919 12.2695 19.9218 12.2695 22.5604C12.2692 23.9049 12.6194 25.2292 13.29 26.4192C13.9605 27.6091 14.9312 28.6288 16.1183 29.3904C16.7575 29.7996 17.0498 30.2993 17.0498 30.7059C17.0493 30.7485 17.0466 30.7911 17.0416 30.8334C16.9623 31.458 16.625 34.1222 16.3068 36.8807C15.9926 39.5933 15.684 42.5214 15.684 43.5934C15.684 44.9457 16.2595 46.2426 17.2841 47.1989C18.3086 48.1551 19.6982 48.6923 21.1471 48.6923C22.596 48.6923 23.9856 48.1551 25.0101 47.1989C26.0346 46.2426 26.6102 44.9457 26.6102 43.5934C26.6102 42.5226 26.3002 39.5933 25.9874 36.8807C25.6692 34.1222 25.3318 31.4567 25.2526 30.8321C25.2476 30.7898 25.2449 30.7473 25.2444 30.7047C25.2444 30.2993 25.5367 29.7996 26.1745 29.3904C27.3619 28.629 28.3328 27.6093 29.0036 26.4194C29.6744 25.2294 30.0248 23.905 30.0246 22.5604C30.0246 19.9205 29.4305 17.0906 29.0194 15.4424C28.652 13.965 27.2357 13 25.6815 13C24.8701 12.9989 24.0835 13.2611 23.4566 13.7419C22.7973 13.2605 21.9842 12.9993 21.1471 13C20.2757 13 19.474 13.2766 18.8376 13.7419C18.2106 13.2611 17.4241 12.9989 16.6127 13ZM24.903 16.276C24.903 16.0833 24.985 15.8985 25.131 15.7623C25.277 15.626 25.475 15.5495 25.6815 15.5495C26.0366 15.5495 26.2961 15.7611 26.3589 16.0198C26.755 17.612 27.2931 20.2162 27.2931 22.5604C27.2933 23.4915 27.0506 24.4086 26.5862 25.2325C26.1217 26.0565 25.4493 26.7625 24.6271 27.2897C23.5481 27.9818 22.5129 29.1673 22.5129 30.7059C22.5129 30.8479 22.522 30.9906 22.5402 31.1342C22.6194 31.755 22.9554 34.4103 23.2722 37.1535C23.5918 39.9413 23.8786 42.6947 23.8786 43.5934C23.8786 44.2696 23.5908 44.918 23.0786 45.3961C22.5663 45.8743 21.8715 46.1429 21.1471 46.1429C20.4226 46.1429 19.7278 45.8743 19.2156 45.3961C18.7033 44.918 18.4155 44.2696 18.4155 43.5934C18.4155 42.6947 18.701 39.9413 19.0219 37.1535C19.3388 34.4103 19.6748 31.755 19.754 31.1342C19.7722 30.9898 19.7813 30.847 19.7813 30.7059C19.7813 29.1673 18.7447 27.9818 17.6671 27.2897C16.8449 26.7625 16.1725 26.0565 15.708 25.2325C15.2435 24.4086 15.0009 23.4915 15.0011 22.5604C15.0011 20.2149 15.5392 17.612 15.9353 16.0198C15.9731 15.8807 16.0611 15.758 16.1845 15.6723C16.3079 15.5867 16.4591 15.5433 16.6127 15.5495C16.8192 15.5495 17.0172 15.626 17.1632 15.7623C17.3092 15.8985 17.3912 16.0833 17.3912 16.276V23.1978C17.3912 23.5359 17.5351 23.8601 17.7912 24.0992C18.0474 24.3382 18.3947 24.4725 18.757 24.4725C19.1192 24.4725 19.4666 24.3382 19.7227 24.0992C19.9789 23.8601 20.1227 23.5359 20.1227 23.1978V16.5055C20.1227 16.2519 20.2307 16.0088 20.4228 15.8295C20.6149 15.6502 20.8754 15.5495 21.1471 15.5495C21.4188 15.5495 21.6793 15.6502 21.8714 15.8295C22.0635 16.0088 22.1714 16.2519 22.1714 16.5055V23.1978C22.1714 23.5359 22.3153 23.8601 22.5714 24.0992C22.8276 24.3382 23.175 24.4725 23.5372 24.4725C23.8994 24.4725 24.2468 24.3382 24.5029 24.0992C24.7591 23.8601 24.903 23.5359 24.903 23.1978V16.276ZM34.8049 22.5604C34.8046 20.8112 35.505 19.125 36.7685 17.833C38.032 16.541 39.7673 15.7365 41.6337 15.5775V29.5714C41.6337 29.9271 41.7089 30.7289 41.8072 31.6849C41.9096 32.6754 42.0489 33.9259 42.1951 35.244V35.2478C42.5816 38.7036 42.9995 42.492 42.9995 43.5934C42.9995 44.2696 42.7117 44.918 42.1995 45.3961C41.6872 45.8743 40.9924 46.1429 40.268 46.1429C39.5435 46.1429 38.8487 45.8743 38.3365 45.3961C37.8242 44.918 37.5364 44.2696 37.5364 43.5934C37.5364 42.6833 37.826 39.6226 38.1483 36.5263C38.3819 34.2972 38.6255 32.0689 38.879 29.8417C38.8868 29.7743 38.8927 29.7067 38.8967 29.639C38.9066 29.4661 38.8785 29.2932 38.8144 29.1307C38.7503 28.9682 38.6514 28.8197 38.5237 28.6941C38.396 28.5685 38.2423 28.4685 38.0718 28.4002C37.9014 28.3318 37.7178 28.2966 37.5323 28.2967H35.4877C35.3066 28.2967 35.1329 28.2296 35.0049 28.11C34.8768 27.9905 34.8049 27.8284 34.8049 27.6593V22.5604ZM42.3166 13C39.5999 13 36.9945 14.0073 35.0735 15.8002C33.1525 17.5931 32.0733 20.0249 32.0733 22.5604V27.6593C32.0733 28.5045 32.433 29.3151 33.0734 29.9128C33.7137 30.5104 34.5822 30.8462 35.4877 30.8462H36.019C35.8161 32.6565 35.6198 34.4674 35.4304 36.279C35.1162 39.3001 34.8049 42.5252 34.8049 43.5934C34.8049 44.9457 35.3804 46.2426 36.405 47.1989C37.4295 48.1551 38.8191 48.6923 40.268 48.6923C41.7169 48.6923 43.1064 48.1551 44.131 47.1989C45.1555 46.2426 45.7311 44.9457 45.7311 43.5934C45.7311 42.3378 45.2981 38.4524 44.9307 35.1407L44.913 34.9852C44.78 33.8039 44.6511 32.6222 44.5265 31.4402C44.4199 30.4229 44.3653 29.7728 44.3653 29.5714V14.2747C44.3653 13.9367 44.2214 13.6124 43.9653 13.3734C43.7091 13.1343 43.3617 13 42.9995 13H42.3166Z" stroke="#24446B" stroke-width="2" mask="url(#path-1-inside-1_146_2912)"/>
<path d="M16.6127 13C15.0584 13 13.6421 13.965 13.2747 15.4424C12.865 17.0919 12.2695 19.9218 12.2695 22.5604C12.2692 23.9049 12.6194 25.2292 13.29 26.4192C13.9605 27.6091 14.9312 28.6288 16.1183 29.3904C16.7575 29.7996 17.0498 30.2993 17.0498 30.7059C17.0493 30.7485 17.0466 30.7911 17.0416 30.8334C16.9623 31.458 16.625 34.1222 16.3068 36.8807C15.9926 39.5933 15.684 42.5214 15.684 43.5934C15.684 44.9457 16.2595 46.2426 17.2841 47.1989C18.3086 48.1551 19.6982 48.6923 21.1471 48.6923C22.596 48.6923 23.9856 48.1551 25.0101 47.1989C26.0346 46.2426 26.6102 44.9457 26.6102 43.5934C26.6102 42.5226 26.3002 39.5933 25.9874 36.8807C25.6692 34.1222 25.3318 31.4567 25.2526 30.8321C25.2476 30.7898 25.2449 30.7473 25.2444 30.7047C25.2444 30.2993 25.5367 29.7996 26.1745 29.3904C27.3619 28.629 28.3328 27.6093 29.0036 26.4194C29.6744 25.2294 30.0248 23.905 30.0246 22.5604C30.0246 19.9205 29.4305 17.0906 29.0194 15.4424C28.652 13.965 27.2357 13 25.6815 13C24.8701 12.9989 24.0835 13.2611 23.4566 13.7419C22.7973 13.2605 21.9842 12.9993 21.1471 13C20.2757 13 19.474 13.2766 18.8376 13.7419C18.2106 13.2611 17.4241 12.9989 16.6127 13ZM24.903 16.276C24.903 16.0833 24.985 15.8985 25.131 15.7623C25.277 15.626 25.475 15.5495 25.6815 15.5495C26.0366 15.5495 26.2961 15.7611 26.3589 16.0198C26.755 17.612 27.2931 20.2162 27.2931 22.5604C27.2933 23.4915 27.0506 24.4086 26.5862 25.2325C26.1217 26.0565 25.4493 26.7625 24.6271 27.2897C23.5481 27.9818 22.5129 29.1673 22.5129 30.7059C22.5129 30.8479 22.522 30.9906 22.5402 31.1342C22.6194 31.755 22.9554 34.4103 23.2722 37.1535C23.5918 39.9413 23.8786 42.6947 23.8786 43.5934C23.8786 44.2696 23.5908 44.918 23.0786 45.3961C22.5663 45.8743 21.8715 46.1429 21.1471 46.1429C20.4226 46.1429 19.7278 45.8743 19.2156 45.3961C18.7033 44.918 18.4155 44.2696 18.4155 43.5934C18.4155 42.6947 18.701 39.9413 19.0219 37.1535C19.3388 34.4103 19.6748 31.755 19.754 31.1342C19.7722 30.9898 19.7813 30.847 19.7813 30.7059C19.7813 29.1673 18.7447 27.9818 17.6671 27.2897C16.8449 26.7625 16.1725 26.0565 15.708 25.2325C15.2435 24.4086 15.0009 23.4915 15.0011 22.5604C15.0011 20.2149 15.5392 17.612 15.9353 16.0198C15.9731 15.8807 16.0611 15.758 16.1845 15.6723C16.3079 15.5867 16.4591 15.5433 16.6127 15.5495C16.8192 15.5495 17.0172 15.626 17.1632 15.7623C17.3092 15.8985 17.3912 16.0833 17.3912 16.276V23.1978C17.3912 23.5359 17.5351 23.8601 17.7912 24.0992C18.0474 24.3382 18.3947 24.4725 18.757 24.4725C19.1192 24.4725 19.4666 24.3382 19.7227 24.0992C19.9789 23.8601 20.1227 23.5359 20.1227 23.1978V16.5055C20.1227 16.2519 20.2307 16.0088 20.4228 15.8295C20.6149 15.6502 20.8754 15.5495 21.1471 15.5495C21.4188 15.5495 21.6793 15.6502 21.8714 15.8295C22.0635 16.0088 22.1714 16.2519 22.1714 16.5055V23.1978C22.1714 23.5359 22.3153 23.8601 22.5714 24.0992C22.8276 24.3382 23.175 24.4725 23.5372 24.4725C23.8994 24.4725 24.2468 24.3382 24.5029 24.0992C24.7591 23.8601 24.903 23.5359 24.903 23.1978V16.276ZM34.8049 22.5604C34.8046 20.8112 35.505 19.125 36.7685 17.833C38.032 16.541 39.7673 15.7365 41.6337 15.5775V29.5714C41.6337 29.9271 41.7089 30.7289 41.8072 31.6849C41.9096 32.6754 42.0489 33.9259 42.1951 35.244V35.2478C42.5816 38.7036 42.9995 42.492 42.9995 43.5934C42.9995 44.2696 42.7117 44.918 42.1995 45.3961C41.6872 45.8743 40.9924 46.1429 40.268 46.1429C39.5435 46.1429 38.8487 45.8743 38.3365 45.3961C37.8242 44.918 37.5364 44.2696 37.5364 43.5934C37.5364 42.6833 37.826 39.6226 38.1483 36.5263C38.3819 34.2972 38.6255 32.0689 38.879 29.8417C38.8868 29.7743 38.8927 29.7067 38.8967 29.639C38.9066 29.4661 38.8785 29.2932 38.8144 29.1307C38.7503 28.9682 38.6514 28.8197 38.5237 28.6941C38.396 28.5685 38.2423 28.4685 38.0718 28.4002C37.9014 28.3318 37.7178 28.2966 37.5323 28.2967H35.4877C35.3066 28.2967 35.1329 28.2296 35.0049 28.11C34.8768 27.9905 34.8049 27.8284 34.8049 27.6593V22.5604ZM42.3166 13C39.5999 13 36.9945 14.0073 35.0735 15.8002C33.1525 17.5931 32.0733 20.0249 32.0733 22.5604V27.6593C32.0733 28.5045 32.433 29.3151 33.0734 29.9128C33.7137 30.5104 34.5822 30.8462 35.4877 30.8462H36.019C35.8161 32.6565 35.6198 34.4674 35.4304 36.279C35.1162 39.3001 34.8049 42.5252 34.8049 43.5934C34.8049 44.9457 35.3804 46.2426 36.405 47.1989C37.4295 48.1551 38.8191 48.6923 40.268 48.6923C41.7169 48.6923 43.1064 48.1551 44.131 47.1989C45.1555 46.2426 45.7311 44.9457 45.7311 43.5934C45.7311 42.3378 45.2981 38.4524 44.9307 35.1407L44.913 34.9852C44.78 33.8039 44.6511 32.6222 44.5265 31.4402C44.4199 30.4229 44.3653 29.7728 44.3653 29.5714V14.2747C44.3653 13.9367 44.2214 13.6124 43.9653 13.3734C43.7091 13.1343 43.3617 13 42.9995 13H42.3166Z" stroke="black" stroke-opacity="0.2" stroke-width="2" mask="url(#path-1-inside-1_146_2912)"/>
<path d="M22.0159 57.0793H22.7749V58.0473C22.7749 59.9283 21.6529 61.5453 19.9699 62.1833L19.5079 61.4573C21.0149 60.9073 22.0159 59.5323 22.0159 58.0473V57.0793ZM22.1809 57.0793H22.9289V58.0473C22.9289 59.4773 23.9519 60.7643 25.4259 61.2813L24.9639 61.9963C23.3029 61.3913 22.1809 59.8733 22.1809 58.0473V57.0793ZM20.9379 63.0963H27.5819V66.5503H26.6579V63.8443H20.9379V63.0963ZM26.6579 56.6063H27.5819V62.5903H26.6579V56.6063ZM33.587 61.8863H34.489V63.6023H33.587V61.8863ZM29.539 61.4023H38.526V62.1503H29.539V61.4023ZM30.375 56.9143H37.679V57.6623H30.375V56.9143ZM30.419 59.7413H37.635V60.4893H30.419V59.7413ZM31.882 57.2443H32.795V60.2253H31.882V57.2443ZM35.27 57.2443H36.172V60.2253H35.27V57.2443ZM30.639 63.3053H37.426V66.4183H30.639V63.3053ZM36.535 64.0313H31.541V65.6813H36.535V64.0313Z" fill="#24446B"/>
<path d="M22.0159 57.0793H22.7749V58.0473C22.7749 59.9283 21.6529 61.5453 19.9699 62.1833L19.5079 61.4573C21.0149 60.9073 22.0159 59.5323 22.0159 58.0473V57.0793ZM22.1809 57.0793H22.9289V58.0473C22.9289 59.4773 23.9519 60.7643 25.4259 61.2813L24.9639 61.9963C23.3029 61.3913 22.1809 59.8733 22.1809 58.0473V57.0793ZM20.9379 63.0963H27.5819V66.5503H26.6579V63.8443H20.9379V63.0963ZM26.6579 56.6063H27.5819V62.5903H26.6579V56.6063ZM33.587 61.8863H34.489V63.6023H33.587V61.8863ZM29.539 61.4023H38.526V62.1503H29.539V61.4023ZM30.375 56.9143H37.679V57.6623H30.375V56.9143ZM30.419 59.7413H37.635V60.4893H30.419V59.7413ZM31.882 57.2443H32.795V60.2253H31.882V57.2443ZM35.27 57.2443H36.172V60.2253H35.27V57.2443ZM30.639 63.3053H37.426V66.4183H30.639V63.3053ZM36.535 64.0313H31.541V65.6813H36.535V64.0313Z" fill="black" fill-opacity="0.2"/>
</svg>
