<svg width="52" height="52" viewBox="0 0 52 52" fill="none" xmlns="http://www.w3.org/2000/svg">
<g filter="url(#filter0_b_496_1345)">
<circle cx="26" cy="26" r="26" fill="#EDBEA4"/>
</g>
<path d="M17.18 12C16.042 12 15.005 12.757 14.736 13.916C14.436 15.21 14 17.43 14 19.5C13.9998 20.5547 14.2562 21.5936 14.7471 22.5271C15.2381 23.4606 15.9488 24.2606 16.818 24.858C17.286 25.179 17.5 25.571 17.5 25.89C17.4997 25.9234 17.4977 25.9568 17.494 25.99C17.436 26.48 17.189 28.57 16.956 30.734C16.726 32.862 16.5 35.159 16.5 36C16.5 37.0609 16.9214 38.0783 17.6716 38.8284C18.4217 39.5786 19.4391 40 20.5 40C21.5609 40 22.5783 39.5786 23.3284 38.8284C24.0786 38.0783 24.5 37.0609 24.5 36C24.5 35.16 24.273 32.862 24.044 30.734C23.811 28.57 23.564 26.479 23.506 25.989C23.5023 25.9558 23.5003 25.9224 23.5 25.889C23.5 25.571 23.714 25.179 24.181 24.858C25.0504 24.2607 25.7613 23.4607 26.2524 22.5273C26.7435 21.5938 27.0001 20.5548 27 19.5C27 17.429 26.565 15.209 26.264 13.916C25.995 12.757 24.958 12 23.82 12C23.2259 11.9991 22.65 12.2049 22.191 12.582C21.7083 12.2043 21.1129 11.9994 20.5 12C19.862 12 19.275 12.217 18.809 12.582C18.35 12.2049 17.7741 11.9991 17.18 12ZM23.25 14.57C23.25 14.4188 23.3101 14.2738 23.4169 14.167C23.5238 14.0601 23.6688 14 23.82 14C24.08 14 24.27 14.166 24.316 14.369C24.606 15.618 25 17.661 25 19.5C25.0001 20.2304 24.8225 20.9498 24.4824 21.5962C24.1423 22.2426 23.65 22.7964 23.048 23.21C22.258 23.753 21.5 24.683 21.5 25.89C21.5 26.0013 21.5067 26.1133 21.52 26.226C21.578 26.713 21.824 28.796 22.056 30.948C22.29 33.135 22.5 35.295 22.5 36C22.5 36.5304 22.2893 37.0391 21.9142 37.4142C21.5391 37.7893 21.0304 38 20.5 38C19.9696 38 19.4609 37.7893 19.0858 37.4142C18.7107 37.0391 18.5 36.5304 18.5 36C18.5 35.295 18.709 33.135 18.944 30.948C19.176 28.796 19.422 26.713 19.48 26.226C19.4933 26.1127 19.5 26.0007 19.5 25.89C19.5 24.683 18.741 23.753 17.952 23.21C17.35 22.7964 16.8577 22.2426 16.5176 21.5962C16.1775 20.9498 15.9999 20.2304 16 19.5C16 17.66 16.394 15.618 16.684 14.369C16.7117 14.2599 16.7761 14.1636 16.8665 14.0964C16.9568 14.0292 17.0675 13.9952 17.18 14C17.3312 14 17.4762 14.0601 17.5831 14.167C17.6899 14.2738 17.75 14.4188 17.75 14.57V20C17.75 20.2652 17.8554 20.5196 18.0429 20.7071C18.2304 20.8946 18.4848 21 18.75 21C19.0152 21 19.2696 20.8946 19.4571 20.7071C19.6446 20.5196 19.75 20.2652 19.75 20V14.75C19.75 14.5511 19.829 14.3603 19.9697 14.2197C20.1103 14.079 20.3011 14 20.5 14C20.6989 14 20.8897 14.079 21.0303 14.2197C21.171 14.3603 21.25 14.5511 21.25 14.75V20C21.25 20.2652 21.3554 20.5196 21.5429 20.7071C21.7304 20.8946 21.9848 21 22.25 21C22.5152 21 22.7696 20.8946 22.9571 20.7071C23.1446 20.5196 23.25 20.2652 23.25 20V14.57ZM30.5 19.5C30.4998 18.1277 31.0126 16.805 31.9377 15.7914C32.8628 14.7779 34.1334 14.1468 35.5 14.022V25C35.5 25.279 35.555 25.908 35.627 26.658C35.702 27.435 35.804 28.416 35.911 29.45V29.453C36.194 32.164 36.5 35.136 36.5 36C36.5 36.5304 36.2893 37.0391 35.9142 37.4142C35.5391 37.7893 35.0304 38 34.5 38C33.9696 38 33.4609 37.7893 33.0858 37.4142C32.7107 37.0391 32.5 36.5304 32.5 36C32.5 35.286 32.712 32.885 32.948 30.456C33.1191 28.7073 33.2974 26.9593 33.483 25.212C33.4887 25.1591 33.4931 25.1061 33.496 25.053C33.5032 24.9174 33.4827 24.7817 33.4357 24.6543C33.3888 24.5268 33.3163 24.4103 33.2229 24.3117C33.1294 24.2132 33.0168 24.1348 32.892 24.0812C32.7672 24.0276 32.6328 23.9999 32.497 24H31C30.8674 24 30.7402 23.9473 30.6464 23.8536C30.5527 23.7598 30.5 23.6326 30.5 23.5V19.5ZM36 12C34.0109 12 32.1032 12.7902 30.6967 14.1967C29.2902 15.6032 28.5 17.5109 28.5 19.5V23.5C28.5 24.163 28.7634 24.7989 29.2322 25.2678C29.7011 25.7366 30.337 26 31 26H31.389C31.2404 27.4202 31.0967 28.8408 30.958 30.262C30.728 32.632 30.5 35.162 30.5 36C30.5 37.0609 30.9214 38.0783 31.6716 38.8284C32.4217 39.5786 33.4391 40 34.5 40C35.5609 40 36.5783 39.5786 37.3284 38.8284C38.0786 38.0783 38.5 37.0609 38.5 36C38.5 35.015 38.183 31.967 37.914 29.369L37.901 29.247C37.8036 28.3203 37.7093 27.3933 37.618 26.466C37.54 25.668 37.5 25.158 37.5 25V13C37.5 12.7348 37.3946 12.4804 37.2071 12.2929C37.0196 12.1054 36.7652 12 36.5 12H36Z" fill="white"/>
<defs>
<filter id="filter0_b_496_1345" x="-20" y="-20" width="92" height="92" filterUnits="userSpaceOnUse" color-interpolation-filters="sRGB">
<feFlood flood-opacity="0" result="BackgroundImageFix"/>
<feGaussianBlur in="BackgroundImageFix" stdDeviation="10"/>
<feComposite in2="SourceAlpha" operator="in" result="effect1_backgroundBlur_496_1345"/>
<feBlend mode="normal" in="SourceGraphic" in2="effect1_backgroundBlur_496_1345" result="shape"/>
</filter>
</defs>
</svg>
