<svg width="44" height="44" viewBox="0 0 44 44" fill="none" xmlns="http://www.w3.org/2000/svg">
<path d="M10.7031 20.2422C10.7031 18.9922 10.9375 17.8164 11.4062 16.7148C11.8828 15.6133 12.5391 14.6484 13.375 13.8203C14.2109 12.9844 15.1758 12.332 16.2695 11.8633C17.3711 11.3867 18.5469 11.1484 19.7969 11.1484C21.0469 11.1484 22.2188 11.3867 23.3125 11.8633C24.4141 12.332 25.3828 12.9844 26.2188 13.8203C27.0547 14.6484 27.707 15.6133 28.1758 16.7148C28.6523 17.8164 28.8906 18.9922 28.8906 20.2422C28.8906 21.3125 28.7109 22.332 28.3516 23.3008C28 24.2695 27.5117 25.1367 26.8867 25.9023L32.957 32.0195C33.0664 32.1211 33.1484 32.2383 33.2031 32.3711C33.2578 32.5039 33.2852 32.6484 33.2852 32.8047C33.2852 33.0078 33.2383 33.1953 33.1445 33.3672C33.0508 33.5469 32.918 33.6875 32.7461 33.7891C32.582 33.8906 32.3906 33.9414 32.1719 33.9414C32.0156 33.9414 31.8672 33.9102 31.7266 33.8477C31.5938 33.793 31.4727 33.7148 31.3633 33.6133L25.2578 27.4844C24.5 28.0625 23.6562 28.5156 22.7266 28.8438C21.7969 29.1719 20.8203 29.3359 19.7969 29.3359C18.5469 29.3359 17.3711 29.1016 16.2695 28.6328C15.1758 28.1562 14.2109 27.5 13.375 26.6641C12.5391 25.8281 11.8828 24.8633 11.4062 23.7695C10.9375 22.668 10.7031 21.4922 10.7031 20.2422ZM12.2266 20.2422C12.2266 21.2812 12.4219 22.2617 12.8125 23.1836C13.2031 24.0977 13.7461 24.9023 14.4414 25.5977C15.1367 26.2852 15.9414 26.8281 16.8555 27.2266C17.7695 27.6172 18.75 27.8125 19.7969 27.8125C20.8438 27.8125 21.8242 27.6172 22.7383 27.2266C23.6523 26.8281 24.4531 26.2852 25.1406 25.5977C25.8359 24.9023 26.3789 24.0977 26.7695 23.1836C27.168 22.2617 27.3672 21.2812 27.3672 20.2422C27.3672 19.1953 27.168 18.2148 26.7695 17.3008C26.3789 16.3867 25.8359 15.582 25.1406 14.8867C24.4531 14.1914 23.6523 13.6484 22.7383 13.2578C21.8242 12.8594 20.8438 12.6602 19.7969 12.6602C18.75 12.6602 17.7695 12.8594 16.8555 13.2578C15.9414 13.6484 15.1367 14.1914 14.4414 14.8867C13.7461 15.582 13.2031 16.3867 12.8125 17.3008C12.4219 18.2148 12.2266 19.1953 12.2266 20.2422Z" fill="white"/>
</svg>
