<svg width="52" height="73" viewBox="0 0 52 73" fill="none" xmlns="http://www.w3.org/2000/svg">
<path d="M21.3533 57.596H22.1453V58.355C22.1453 60.522 20.1323 62.205 18.1413 62.656L17.7343 61.897C19.4833 61.567 21.3533 60.049 21.3533 58.355V57.596ZM21.5183 57.596H22.3103V58.355C22.3103 60.06 24.1913 61.567 25.9293 61.897L25.5223 62.656C23.5423 62.205 21.5183 60.533 21.5183 58.355V57.596ZM17.3713 64.768H26.3803V65.516H17.3713V64.768ZM27.4904 64.867H36.4994V65.626H27.4904V64.867ZM31.5054 62.293H32.4184V65.208H31.5054V62.293ZM28.2714 57.86H35.6524V58.608H28.2714V57.86ZM28.2934 61.864H35.6414V62.601H28.2934V61.864ZM29.8224 58.465H30.7354V61.996H29.8224V58.465ZM33.2104 58.465H34.1124V61.996H33.2104V58.465ZM37.6096 64.834H46.6186V65.593H37.6096V64.834ZM41.6466 59.026H42.4496V59.246C42.4496 61.347 40.6346 62.755 38.5006 63.184L38.1376 62.436C40.0406 62.095 41.6466 60.852 41.6466 59.246V59.026ZM41.7676 59.026H42.5596V59.246C42.5596 60.852 44.1656 62.095 46.0686 62.436L45.7056 63.184C43.5716 62.755 41.7676 61.347 41.7676 59.246V59.026ZM38.4346 58.498H45.7606V59.246H38.4346V58.498ZM41.6466 57.145H42.5596V58.773H41.6466V57.145Z" fill="#24446B"/>
<path d="M24.1147 21.2049C24.8767 19.2981 26.0619 17.5852 27.5848 16.1978C29.2971 14.6377 31.3794 13.5407 33.6345 13.0108C35.8895 12.4808 38.2426 12.5355 40.4706 13.1696C42.6986 13.8037 44.7277 14.9962 46.3657 16.6341C48.0037 18.272 49.1963 20.301 49.8304 22.5288C50.4645 24.7567 50.5192 27.1095 49.9892 29.3644C49.4592 31.6193 48.3622 33.7015 46.802 35.4137C45.4146 36.9363 43.7018 38.1215 41.795 38.8834C41.7295 38.5249 41.6551 38.168 41.5719 37.8131C42.6932 37.3456 43.7414 36.7171 44.6833 35.9467L45.2393 35.4918L44.7313 34.9839L28.017 18.2706L27.5091 17.7628L27.0543 18.3187C26.2839 19.2603 25.6554 20.3084 25.1879 21.4294C24.8321 21.3457 24.4742 21.2708 24.1147 21.2049ZM37.9752 25.7866L37.5159 26.2462L37.9754 26.7056L45.4916 34.2214L45.9987 34.7284L46.4536 34.1742C47.5953 32.7833 48.4227 31.1621 48.879 29.4215C49.3354 27.681 49.4099 25.8624 49.0975 24.0903L48.9409 23.2015L48.1475 23.6318C47.2336 24.1276 46.1853 24.4083 45.0699 24.4083H45.0698C43.7242 24.4086 42.412 23.9898 41.3154 23.2102L40.8675 22.8917L40.479 23.2806L37.9752 25.7866ZM46.454 18.3183L45.9991 17.7631L45.4916 18.2706L42.1967 21.5653L41.6047 22.1573L42.325 22.5841C43.1286 23.0603 44.0694 23.3329 45.0699 23.3329C46.2172 23.3329 47.2822 22.9734 48.157 22.3633L48.581 22.0675L48.3883 21.5878C47.9135 20.406 47.2612 19.3035 46.454 18.3183ZM38.5932 17.9323V17.9321C38.5932 16.8168 38.874 15.7686 39.3698 14.8547L39.8002 14.0613L38.9113 13.9047C37.1391 13.5923 35.3204 13.6669 33.5798 14.1232C31.8392 14.5795 30.2178 15.4068 28.8269 16.5484L28.2725 17.0034L28.7796 17.5105L36.2959 25.0262L36.7557 25.486L37.2153 25.026L39.7191 22.52L40.1071 22.1317L39.7893 21.6842C39.0108 20.588 38.5928 19.2768 38.5932 17.9323ZM40.418 20.6775L40.8451 21.3965L39.6688 17.9325C39.6689 18.9321 39.9388 19.8707 40.418 20.6775ZM23.308 34.1792L23.3092 34.1781C23.3592 34.128 23.4185 34.0883 23.4838 34.0612C23.5492 34.034 23.6192 34.0201 23.69 34.0201C23.7607 34.0201 23.8307 34.034 23.8961 34.0612C23.9614 34.0883 24.0208 34.128 24.0707 34.1781L24.0713 34.1786L28.8224 38.9294C28.9235 39.0306 28.9803 39.1677 28.9803 39.3107C28.9803 39.4537 28.9235 39.5908 28.8224 39.692C28.7213 39.7931 28.5841 39.8499 28.4411 39.8499C28.298 39.8499 28.1608 39.7931 28.0597 39.692L23.3086 34.9412L23.308 34.9406C23.258 34.8906 23.2182 34.8313 23.1911 34.766C23.164 34.7007 23.1501 34.6306 23.1501 34.5599C23.1501 34.4892 23.164 34.4192 23.1911 34.3538C23.2182 34.2885 23.258 34.2292 23.308 34.1792ZM16.5633 25.596C16.0759 25.596 15.6085 25.7896 15.2638 26.1342C14.9192 26.4789 14.7255 26.9463 14.7255 27.4337V30.9968C14.7255 35.5792 16.546 39.9739 19.7864 43.2141C23.0268 46.4543 27.4218 48.2746 32.0044 48.2746H35.5677C36.0551 48.2746 36.5225 48.081 36.8672 47.7364C37.2118 47.3917 37.4055 46.9243 37.4055 46.4369V42.8738C37.4055 38.2914 35.585 33.8968 32.3446 30.6565C29.1042 27.4163 24.7093 25.596 20.1266 25.596H16.5633ZM13.65 27.4337C13.65 26.6611 13.9569 25.9202 14.5033 25.3739C15.0496 24.8275 15.7906 24.5206 16.5633 24.5206H20.1266C24.9945 24.5206 29.6631 26.4543 33.1052 29.8962C36.5473 33.338 38.481 38.0062 38.481 42.8738V46.4369C38.481 47.2095 38.1741 47.9504 37.6277 48.4968C37.0814 49.0431 36.3404 49.35 35.5677 49.35H32.0044C27.1365 49.35 22.468 47.4164 19.0259 43.9745C15.5837 40.5326 13.65 35.8644 13.65 30.9968V27.4337Z" fill="#24446B" stroke="#24446B" stroke-width="1.3"/>
</svg>
