<svg width="52" height="52" viewBox="0 0 52 52" fill="none" xmlns="http://www.w3.org/2000/svg">
<g filter="url(#filter0_b_495_1342)">
<circle cx="26" cy="26" r="26" fill="#EDBEA4"/>
</g>
<path d="M32.7551 30.0581C33.6496 29.7334 34.4828 29.2598 35.2194 28.6573L23.3434 16.782C22.7408 17.5186 22.2671 18.3517 21.9424 19.2462C21.3923 19.1013 20.8344 18.9875 20.2714 18.9053C20.82 17.2704 21.7771 15.8027 23.0518 14.6412C24.3266 13.4798 25.8769 12.6631 27.5557 12.2686C29.2345 11.8741 30.9863 11.9148 32.645 12.3868C34.3037 12.8589 35.8143 13.7467 37.0338 14.966C38.2532 16.1854 39.1411 17.696 39.6132 19.3546C40.0852 21.0132 40.1259 22.7648 39.7314 24.4435C39.3368 26.1223 38.5201 27.6724 37.3586 28.9471C36.1971 30.2218 34.7293 31.1788 33.0943 31.7273C33.0125 31.165 32.8993 30.6077 32.7551 30.0581ZM31.0722 22.1222L36.4127 27.4623C37.1816 26.5256 37.7389 25.4336 38.0462 24.2613C38.3536 23.089 38.4038 21.8642 38.1934 20.6707C37.4778 21.0589 36.6574 21.2783 35.7865 21.2783C34.7345 21.2785 33.7086 20.9511 32.8513 20.3416L31.0722 22.1222ZM36.4127 16.782L34.0716 19.123C34.5729 19.42 35.1603 19.5905 35.7865 19.5905C36.5039 19.5905 37.1689 19.366 37.7158 18.9846C37.3959 18.1884 36.9565 17.4457 36.4127 16.782ZM30.7228 16.2149C30.7228 15.344 30.9423 14.5238 31.3305 13.8081C30.1369 13.5978 28.9119 13.648 27.7396 13.9553C26.5672 14.2627 25.4752 14.8199 24.5384 15.5888L29.8789 20.9289L31.6579 19.1483C31.0493 18.2913 30.7225 17.2661 30.7228 16.2149ZM32.4107 16.2149C32.4107 16.8411 32.5795 17.4268 32.8783 17.9297L35.2194 15.5888C34.5611 15.0487 33.8184 14.6065 33.015 14.2858C32.6212 14.852 32.4103 15.5253 32.4107 16.2149ZM15.5318 22.1222C15.308 22.1222 15.0933 22.2111 14.9351 22.3693C14.7768 22.5276 14.6879 22.7422 14.6879 22.9661V25.4977C14.6879 28.6311 15.9327 31.6362 18.1485 33.8518C20.3643 36.0675 23.3695 37.3122 26.5031 37.3122H29.0349C29.2588 37.3122 29.4734 37.2233 29.6317 37.065C29.79 36.9068 29.8789 36.6921 29.8789 36.4683V33.9366C29.8789 30.8033 28.6341 27.7982 26.4183 25.5825C24.2025 23.3669 21.1973 22.1222 18.0637 22.1222H15.5318ZM13 22.9661C13 22.2946 13.2667 21.6507 13.7416 21.1759C14.2164 20.7011 14.8603 20.4344 15.5318 20.4344H18.0637C21.6449 20.4344 25.0795 21.8569 27.6118 24.3891C30.1441 26.9213 31.5668 30.3556 31.5668 33.9366V36.4683C31.5668 37.1398 31.3 37.7837 30.8252 38.2585C30.3504 38.7333 29.7064 39 29.0349 39H26.5031C22.9219 39 19.4873 37.5774 16.955 35.0453C14.4226 32.5131 13 29.0788 13 25.4977V22.9661ZM19.998 27.4319C20.0764 27.3533 20.1695 27.291 20.272 27.2485C20.3746 27.2059 20.4845 27.184 20.5955 27.184C20.7065 27.184 20.8164 27.2059 20.919 27.2485C21.0215 27.291 21.1146 27.3533 21.193 27.4319L24.5688 30.8075C24.7273 30.966 24.8163 31.1809 24.8163 31.405C24.8163 31.6291 24.7273 31.844 24.5688 32.0025C24.4103 32.1609 24.1954 32.2499 23.9713 32.2499C23.7472 32.2499 23.5322 32.1609 23.3738 32.0025L19.998 28.6269C19.9194 28.5485 19.857 28.4554 19.8145 28.3528C19.7719 28.2503 19.75 28.1404 19.75 28.0294C19.75 27.9184 19.7719 27.8085 19.8145 27.706C19.857 27.6034 19.9194 27.5103 19.998 27.4319Z" fill="white"/>
<defs>
<filter id="filter0_b_495_1342" x="-20" y="-20" width="92" height="92" filterUnits="userSpaceOnUse" color-interpolation-filters="sRGB">
<feFlood flood-opacity="0" result="BackgroundImageFix"/>
<feGaussianBlur in="BackgroundImageFix" stdDeviation="10"/>
<feComposite in2="SourceAlpha" operator="in" result="effect1_backgroundBlur_495_1342"/>
<feBlend mode="normal" in="SourceGraphic" in2="effect1_backgroundBlur_495_1342" result="shape"/>
</filter>
</defs>
</svg>
