<svg width="35" height="24" viewBox="0 0 35 24" fill="none" xmlns="http://www.w3.org/2000/svg">
<g filter="url(#filter0_d_146_9985)">
<path fill-rule="evenodd" clip-rule="evenodd" d="M0 5.32068L28.5941 -5.62033e-06L28.7617 1.00296C28.06 1.13367 27.5662 1.68851 27.6588 2.24237C27.7513 2.79623 28.3951 3.13939 29.0969 3.00895L29.1807 3.51041C28.479 3.64113 27.9852 4.19597 28.0777 4.74982C28.1703 5.30367 28.8141 5.64683 29.5159 5.5164L29.5997 6.01802C28.8978 6.14864 28.4039 6.70355 28.4965 7.25748C28.589 7.8114 29.233 8.15458 29.9348 8.02401L30.0186 8.52541L30.0181 8.52551C29.3162 8.65611 28.8223 9.21104 28.9148 9.76498C29.0074 10.3189 29.6514 10.6621 30.3533 10.5315L30.3538 10.5314L30.4376 11.0331C29.7359 11.1638 29.242 11.7186 29.3346 12.2725C29.4271 12.8264 30.071 13.1696 30.7728 13.0391L30.9404 14.0419L2.34625 19.3626L2.17866 18.3597C2.88034 18.2289 3.3741 17.6741 3.28155 17.1203C3.18901 16.5664 2.54521 16.2233 1.84349 16.3537L1.75969 15.8521C2.46146 15.7215 2.95532 15.1666 2.86277 14.6127C2.77022 14.0588 2.12631 13.7156 1.42451 13.8461L1.34072 13.3447C2.0423 13.2139 2.53596 12.6591 2.44343 12.1053C2.3509 11.5515 1.7072 11.2084 1.00554 11.3387L0.9217 10.8369C1.62292 10.7059 2.11625 10.1513 2.02374 9.59767C1.93124 9.04405 1.28792 8.70095 0.586522 8.83093L0.502753 8.32958C1.20396 8.19855 1.69726 7.64395 1.60476 7.09035C1.51226 6.53674 0.868959 6.19363 0.167576 6.32359L0 5.32068Z" fill="url(#paint0_linear_146_9985)" shape-rendering="crispEdges"/>
</g>
<path d="M8.55854 8.57699L8.60723 9.12321L7.80201 9.23033L7.43039 9.29948L7.81014 11.7845L8.07758 13.1728L7.36186 13.306L7.1805 11.9657L6.72156 9.43137L6.34994 9.50052L5.5448 9.69305L5.48624 9.63988L5.45132 9.0911L8.50687 8.52254L8.55854 8.57699ZM10.4537 11.2926L10.7212 12.6809L9.99859 12.8153L9.82411 11.4738L9.25796 8.38278L9.98744 8.24704L10.4537 11.2926ZM12.7364 7.68569C13.186 7.60202 13.5998 7.62944 13.9777 7.76794L13.952 8.42056L13.8866 8.45408C13.5392 8.27193 13.1797 8.21543 12.8081 8.28458C12.4044 8.3597 12.1177 8.55541 11.9483 8.87171C11.7826 9.18255 11.7451 9.60953 11.8359 10.1527C11.9289 10.7096 12.1075 11.113 12.3716 11.3629C12.6357 11.6127 12.9673 11.7005 13.3665 11.6263C13.5591 11.5904 13.7442 11.5227 13.9215 11.4233C14.1027 11.3184 14.2635 11.1912 14.4041 11.0416L14.4798 11.0702L14.5332 11.7295C14.171 11.9962 13.7971 12.1655 13.4118 12.2372C12.7924 12.3524 12.283 12.2479 11.8834 11.9236C11.4839 11.5992 11.2245 11.0804 11.1053 10.3669C10.9823 9.63046 11.0616 9.02957 11.3434 8.56424C11.6298 8.09805 12.0941 7.8052 12.7364 7.68569ZM15.8504 10.2884L16.1109 11.678L15.4021 11.8099L15.2139 10.4709L14.6615 7.37731L15.3772 7.24413L15.8504 10.2884ZM16.4826 9.18837C17.1348 9.80738 17.8649 10.4261 18.6731 11.0446L18.6801 11.1287C18.4875 11.2215 18.2677 11.3075 18.0207 11.3867L17.9243 11.3619C17.0839 10.6355 16.3621 9.96777 15.7589 9.35863L15.7508 9.3103L16.848 7.38335L17.0564 6.93168L17.834 6.78698L16.4826 9.18837ZM21.7866 9.99539L21.8383 10.0499L21.8812 10.6043L19.273 11.0896L19.0985 9.74809L18.5324 6.65703L21.1544 6.16914L21.206 6.2236L21.2421 6.77928L20.1914 6.94631L19.353 7.10944L19.5481 8.40438L20.3487 8.26964L21.0747 8.11319L21.1321 8.15946L21.1682 8.71515L20.3871 8.83914L19.6393 8.99252L19.7281 9.56686L19.8849 10.3777L20.7257 10.2284L21.7866 9.99539ZM24.6274 5.58695L24.6761 6.13317L23.8709 6.24029L23.4993 6.30944L23.879 8.79448L24.1465 10.1827L23.4308 10.3159L23.2494 8.97571L22.7905 6.44133L22.4188 6.51048L21.6137 6.70301L21.5551 6.64984L21.5202 6.10106L24.5758 5.5325L24.6274 5.58695Z" fill="white"/>
<defs>
<filter id="filter0_d_146_9985" x="0" y="0" width="34.9404" height="23.3625" filterUnits="userSpaceOnUse" color-interpolation-filters="sRGB">
<feFlood flood-opacity="0" result="BackgroundImageFix"/>
<feColorMatrix in="SourceAlpha" type="matrix" values="0 0 0 0 0 0 0 0 0 0 0 0 0 0 0 0 0 0 127 0" result="hardAlpha"/>
<feOffset dx="2" dy="2"/>
<feGaussianBlur stdDeviation="1"/>
<feComposite in2="hardAlpha" operator="out"/>
<feColorMatrix type="matrix" values="0 0 0 0 0 0 0 0 0 0 0 0 0 0 0 0 0 0 0.2 0"/>
<feBlend mode="normal" in2="BackgroundImageFix" result="effect1_dropShadow_146_9985"/>
<feBlend mode="normal" in="SourceGraphic" in2="effect1_dropShadow_146_9985" result="shape"/>
</filter>
<linearGradient id="paint0_linear_146_9985" x1="-19.3749" y1="0.868026" x2="6.35195" y2="-20.7334" gradientUnits="userSpaceOnUse">
<stop stop-color="#723F22" stop-opacity="0.5"/>
<stop offset="1" stop-color="#1C2C66" stop-opacity="0.5"/>
</linearGradient>
</defs>
</svg>
