<svg width="36" height="26" viewBox="0 0 36 26" fill="none" xmlns="http://www.w3.org/2000/svg">
<g filter="url(#filter0_d_114_3078)">
<path fill-rule="evenodd" clip-rule="evenodd" d="M1.00031 6.29647L29.7756 0.102049L29.9329 1.19314C29.8807 1.19897 29.8279 1.20757 29.7747 1.21905C29.066 1.3722 28.5609 1.98018 28.6466 2.57701C28.7323 3.17383 29.3764 3.5335 30.0851 3.38035C30.1386 3.36878 30.191 3.35461 30.2421 3.33805L30.3293 3.94297C30.2844 3.94865 30.2392 3.95637 30.1937 3.9662C29.485 4.11935 28.9799 4.72733 29.0656 5.32415C29.1513 5.92098 29.7953 6.28065 30.5041 6.1275C30.55 6.11758 30.595 6.10576 30.6391 6.09215L30.7257 6.69333C30.6882 6.69863 30.6504 6.70536 30.6124 6.71357C29.9037 6.86672 29.3986 7.4747 29.4843 8.07153C29.57 8.66835 30.214 9.02802 30.9228 8.87487C30.9612 8.86658 30.9989 8.85695 31.0361 8.84606L31.1222 9.44377C31.0919 9.4485 31.0614 9.45416 31.0308 9.46077C30.3221 9.61392 29.817 10.2219 29.9027 10.8187C29.9884 11.4156 30.6324 11.7752 31.3411 11.6221C31.3722 11.6154 31.4028 11.6078 31.433 11.5994L31.5188 12.1948C31.4961 12.1987 31.4734 12.2031 31.4506 12.208C30.7418 12.3612 30.2368 12.9692 30.3225 13.566C30.4082 14.1628 31.0522 14.5225 31.7609 14.3693C31.7841 14.3643 31.8071 14.3588 31.8299 14.3528L31.9407 15.1212L3.1654 21.3156L3.00812 20.2245C3.0603 20.2187 3.11306 20.2101 3.16618 20.1986C3.87491 20.0455 4.37998 19.4375 4.29428 18.8407C4.20858 18.2438 3.56457 17.8842 2.85584 18.0373C2.80232 18.0489 2.74995 18.0631 2.69891 18.0796L2.6117 17.4746C2.65658 17.4689 2.70185 17.4612 2.74739 17.4514C3.45612 17.2982 3.96119 16.6902 3.8755 16.0934C3.7898 15.4966 3.14579 15.1369 2.43706 15.2901C2.39111 15.3 2.34602 15.3118 2.30189 15.3255L2.21525 14.7245C2.25262 14.7192 2.29024 14.7125 2.32805 14.7043C3.03679 14.5512 3.54186 13.9432 3.45616 13.3464C3.37046 12.7495 2.72645 12.3899 2.01772 12.543C1.97951 12.5513 1.94188 12.5608 1.90491 12.5717L1.8187 11.9737C1.84845 11.969 1.87835 11.9634 1.90836 11.9569C2.6171 11.8038 3.12217 11.1958 3.03647 10.599C2.95077 10.0022 2.30676 9.64248 1.59803 9.79564C1.56761 9.80221 1.53757 9.80962 1.50793 9.81783L1.42217 9.22295C1.4445 9.21912 1.46691 9.21478 1.48938 9.20992C2.19811 9.05677 2.70318 8.44879 2.61749 7.85197C2.53179 7.25514 1.88778 6.89547 1.17905 7.04862C1.15617 7.05357 1.13351 7.05898 1.11107 7.06486L1.00031 6.29647Z" fill="url(#paint0_linear_114_3078)" shape-rendering="crispEdges"/>
</g>
<path d="M9.5915 9.34367L9.63267 9.89182L8.8307 10.0125L8.46032 10.088L8.8049 12.5793L9.05238 13.9701L8.33905 14.1155L8.17652 12.7716L7.75385 10.232L7.38347 10.3075L6.58045 10.5141L6.52294 10.4616L6.49549 9.91062L9.54085 9.28978L9.5915 9.34367ZM11.4397 12.0421L11.6872 13.433L10.967 13.5798L10.8113 12.2345L10.2894 9.13717L11.0165 8.98895L11.4397 12.0421ZM13.757 8.38033C14.2051 8.28897 14.6161 8.30983 14.99 8.4429L14.9557 9.09919L14.8903 9.13393C14.5473 8.95649 14.1907 8.90553 13.8203 8.98104C13.4179 9.06307 13.1303 9.26439 12.9576 9.58501C12.7888 9.90007 12.7459 10.3298 12.8289 10.8742C12.9141 11.4324 13.0863 11.8349 13.3455 12.0817C13.6047 12.3285 13.9333 12.4114 14.3311 12.3303C14.5231 12.2912 14.708 12.2202 14.8856 12.1174C15.0671 12.009 15.2287 11.8786 15.3705 11.726L15.4454 11.7535L15.4897 12.4152C15.126 12.6891 14.7521 12.8652 14.368 12.9435C13.7507 13.0694 13.2456 12.9726 12.8527 12.6531C12.4598 12.3336 12.2088 11.8164 12.0998 11.1013C11.9872 10.3632 12.0741 9.758 12.3604 9.28579C12.6513 8.81265 13.1168 8.51083 13.757 8.38033ZM16.8183 10.9456L17.0589 12.3379L16.3525 12.4819L16.1831 11.1393L15.6749 8.03927L16.3883 7.89384L16.8183 10.9456ZM17.4615 9.82987C18.1016 10.4414 18.8194 11.0514 19.6147 11.6599L19.6205 11.7443C19.4277 11.8407 19.2081 11.9307 18.9615 12.0142L18.866 11.9909C18.0401 11.2745 17.3313 10.6151 16.7397 10.0127L16.7323 9.96425L17.8487 8.00995L18.0618 7.55266L18.8369 7.39466L17.4615 9.82987ZM22.724 10.5551L22.7746 10.609L22.81 11.1654L20.2105 11.6954L20.0548 10.35L19.5329 7.25276L22.1462 6.72002L22.1968 6.77391L22.2253 7.33177L21.1785 7.51663L20.3428 7.69414L20.5196 8.99237L21.3173 8.84401L22.0412 8.67504L22.0977 8.72061L22.1262 9.27847L21.3479 9.41572L20.6024 9.58197L20.6832 10.1577L20.8283 10.9701L21.6661 10.8064L22.724 10.5551ZM25.6068 6.07873L25.648 6.62688L24.846 6.74756L24.4756 6.82307L24.8202 9.31433L25.0677 10.7052L24.3544 10.8506L24.1918 9.50665L23.7692 6.96709L23.3988 7.0426L22.5958 7.24912L22.5383 7.19662L22.5108 6.64568L25.5562 6.02484L25.6068 6.07873Z" fill="white"/>
<defs>
<filter id="filter0_d_114_3078" x="1" y="0.102051" width="34.9414" height="25.2136" filterUnits="userSpaceOnUse" color-interpolation-filters="sRGB">
<feFlood flood-opacity="0" result="BackgroundImageFix"/>
<feColorMatrix in="SourceAlpha" type="matrix" values="0 0 0 0 0 0 0 0 0 0 0 0 0 0 0 0 0 0 127 0" result="hardAlpha"/>
<feOffset dx="2" dy="2"/>
<feGaussianBlur stdDeviation="1"/>
<feComposite in2="hardAlpha" operator="out"/>
<feColorMatrix type="matrix" values="0 0 0 0 0 0 0 0 0 0 0 0 0 0 0 0 0 0 0.2 0"/>
<feBlend mode="normal" in2="BackgroundImageFix" result="effect1_dropShadow_114_3078"/>
<feBlend mode="normal" in="SourceGraphic" in2="effect1_dropShadow_114_3078" result="shape"/>
</filter>
<linearGradient id="paint0_linear_114_3078" x1="-18.7608" y1="1.20983" x2="8.95385" y2="-20.3557" gradientUnits="userSpaceOnUse">
<stop stop-color="#723F22" stop-opacity="0.5"/>
<stop offset="1" stop-color="#1C2C66" stop-opacity="0.5"/>
</linearGradient>
</defs>
</svg>
