<svg width="52" height="52" viewBox="0 0 52 52" fill="none" xmlns="http://www.w3.org/2000/svg">
<g filter="url(#filter0_b_496_1354)">
<circle cx="26" cy="26" r="26" fill="#EDBEA4"/>
</g>
<path fill-rule="evenodd" clip-rule="evenodd" d="M14.8745 15.0575L15.1884 15.6877L12.2538 19.7934C12.0662 20.0561 11.9779 20.3768 12.0047 20.6985C12.0314 21.0202 12.1715 21.322 12.3999 21.5502L14.4473 23.5962C14.6499 23.7985 14.911 23.932 15.1937 23.9777C15.4764 24.0235 15.7663 23.9793 16.0224 23.8513L17.7341 22.9974L18.6786 24.255L15.8532 33.293C15.5638 33.0831 15.2901 32.8524 15.0342 32.6028C14.7832 32.3482 14.4422 32.2023 14.0846 32.1964C13.7271 32.1905 13.3814 32.325 13.1221 32.5711C12.8628 32.8172 12.7105 33.1552 12.6979 33.5124C12.6854 33.8696 12.8136 34.2174 13.0551 34.481L13.9232 35.2517C14.465 35.6814 15.2608 36.2406 16.3091 36.7958C18.4152 37.9088 21.5313 39 25.6493 39C29.7673 39 32.8848 37.9088 34.9896 36.7958C35.8303 36.3549 36.629 35.8381 37.3755 35.2517C37.5857 35.0839 38.2695 34.4578 38.2436 34.481C38.4745 34.2383 38.6079 33.9192 38.6185 33.5845C38.6292 33.2498 38.5162 32.9229 38.3012 32.666C38.0861 32.4092 37.7841 32.2403 37.4525 32.1917C37.121 32.1431 36.7831 32.218 36.5033 32.4023L35.0974 25.3763C35.8113 26.0433 36.5824 27.0744 37.3959 28.6976C37.4726 28.8635 37.5818 29.0122 37.7171 29.1351C37.8524 29.2579 38.011 29.3524 38.1835 29.4128C38.356 29.4732 38.5389 29.4984 38.7213 29.4869C38.9037 29.4754 39.082 29.4273 39.2455 29.3456C39.409 29.2639 39.5544 29.1502 39.6731 29.0113C39.7918 28.8724 39.8814 28.7111 39.9365 28.5369C39.9916 28.3627 40.0111 28.1793 39.994 27.9974C39.9768 27.8155 39.9232 27.639 39.8365 27.4782C38.3951 24.596 36.8527 22.9538 35.1315 22.0944C33.8212 21.4397 32.3662 21.2679 30.918 21.2679H26.0015C25.865 20.8549 25.7106 20.448 25.5388 20.0484C24.9805 18.7472 24.0414 17.0503 22.5195 15.5295C20.9376 13.9486 19.3078 13.3157 18.0248 13.1015C17.2973 12.9815 16.4892 12.9433 15.7631 13.1247C15.565 13.1744 15.3805 13.2679 15.2234 13.3983C15.0662 13.5287 14.9404 13.6927 14.8551 13.8782C14.7698 14.0637 14.7273 14.266 14.7307 14.4701C14.734 14.6742 14.7832 14.8749 14.8745 15.0575ZM34.0764 34.185L32.257 25.0925C32.0741 24.1814 31.2032 24.0013 30.4034 23.9959H24.9668C24.3076 23.9959 23.763 23.5212 23.6251 22.8869C23.4774 22.2832 23.2783 21.6931 23.03 21.1233C22.5646 20.0375 21.7975 18.6653 20.5895 17.4582C19.6982 16.5675 18.8369 16.1337 18.1381 15.9237C18.118 16.1694 18.0317 16.4051 17.8883 16.6057L15.1475 20.4385L15.6812 20.9719L17.532 20.0484C17.8179 19.9056 18.1448 19.8675 18.4558 19.9408C18.7668 20.0141 19.0423 20.1941 19.2341 20.4494L21.2815 23.1775C21.4111 23.3504 21.4978 23.5516 21.5343 23.7646C21.5709 23.9776 21.5563 24.1961 21.4917 24.4024L18.265 34.7211C18.8806 35.0075 19.5849 35.2858 20.3779 35.5245L22.3243 30.3372C22.4218 30.0772 22.5964 29.8532 22.8247 29.695C23.053 29.5368 23.3241 29.452 23.6019 29.4519H29.0617C29.3394 29.452 29.6106 29.5368 29.8389 29.695C30.0672 29.8532 30.2417 30.0772 30.3392 30.3372L32.13 35.1071C32.8807 34.8138 33.5305 34.4947 34.0764 34.185ZM29.5053 35.8846L28.1158 32.1799H24.5478L23.075 36.1042C23.9284 36.218 24.7884 36.2741 25.6493 36.272C27.0811 36.272 28.3655 36.1219 29.5053 35.8846Z" fill="white"/>
<defs>
<filter id="filter0_b_496_1354" x="-20" y="-20" width="92" height="92" filterUnits="userSpaceOnUse" color-interpolation-filters="sRGB">
<feFlood flood-opacity="0" result="BackgroundImageFix"/>
<feGaussianBlur in="BackgroundImageFix" stdDeviation="10"/>
<feComposite in2="SourceAlpha" operator="in" result="effect1_backgroundBlur_496_1354"/>
<feBlend mode="normal" in="SourceGraphic" in2="effect1_backgroundBlur_496_1354" result="shape"/>
</filter>
</defs>
</svg>
