<svg width="52" height="73" viewBox="0 0 52 73" fill="none" xmlns="http://www.w3.org/2000/svg">
<path d="M14.9212 58.71H15.6012V59.44C15.6012 61.1 14.6012 62.49 13.0812 63.04L12.6612 62.38C14.0212 61.9 14.9212 60.73 14.9212 59.44V58.71ZM15.0712 58.71H15.7512V59.43C15.7512 60.61 16.6112 61.67 17.9412 62.11L17.5412 62.76C16.0312 62.26 15.0712 60.97 15.0712 59.43V58.71ZM12.9112 58.41H17.7412V59.09H12.9112V58.41ZM18.8812 57.74H19.7112V63.19H18.8812V57.74ZM19.4812 60.03H21.0512V60.73H19.4812V60.03ZM16.8312 63.43C18.6712 63.43 19.8012 64.04 19.8012 65.09C19.8012 66.15 18.6712 66.76 16.8312 66.76C14.9912 66.76 13.8612 66.15 13.8612 65.09C13.8612 64.04 14.9912 63.43 16.8312 63.43ZM16.8312 64.1C15.4912 64.1 14.6712 64.46 14.6712 65.09C14.6712 65.73 15.4912 66.11 16.8312 66.11C18.1712 66.11 18.9912 65.73 18.9912 65.09C18.9912 64.46 18.1712 64.1 16.8312 64.1ZM22.3304 58.39H23.1604V62.21H22.3304V58.39ZM22.3304 61.95H23.0504C24.3404 61.95 25.6904 61.86 27.1704 61.56L27.2704 62.24C25.7504 62.56 24.3904 62.65 23.0504 62.65H22.3304V61.95ZM28.0804 57.75H28.9104V64.28H28.0804V57.75ZM28.6504 60.42H30.2504V61.13H28.6504V60.42ZM23.3104 65.9H29.2304V66.58H23.3104V65.9ZM23.3104 63.64H24.1404V66.22H23.3104V63.64ZM37.2796 57.74H38.1096V62.86H37.2796V57.74ZM37.8796 59.94H39.4496V60.63H37.8796V59.94ZM34.7796 58.32H35.6596C35.6596 60.6 34.0696 62.24 31.4096 62.96L31.0896 62.3C33.4296 61.66 34.7796 60.35 34.7796 58.69V58.32ZM31.4796 58.32H35.2396V58.99H31.4796V58.32ZM32.4196 63.29H38.1096V66.66H32.4196V63.29ZM37.2896 63.96H33.2396V65.98H37.2896V63.96Z" fill="#24446B"/>
<path d="M15.1875 14.9009L15.1878 14.9014L15.5017 15.5316L15.5956 15.72L15.4732 15.8912L12.5387 19.9967L15.1875 14.9009ZM15.1875 14.9009C15.1197 14.7652 15.0831 14.616 15.0806 14.4643C15.0781 14.3126 15.1097 14.1623 15.1731 14.0244C15.2365 13.8866 15.3301 13.7646 15.4469 13.6677C15.5637 13.5707 15.7008 13.5012 15.8481 13.4642C16.509 13.2992 17.2635 13.3307 17.9675 13.4468C19.1844 13.65 20.7458 14.2518 22.2721 15.777C23.7537 17.2576 24.6707 18.9127 25.2171 20.1864L25.2172 20.1867C25.3851 20.577 25.5358 20.9743 25.6691 21.3777L25.7485 21.6179H26.0015H30.918C32.3427 21.6179 33.7349 21.7879 34.9751 22.4075L34.9752 22.4076C36.6049 23.2213 38.1018 24.7922 39.5234 27.6347L39.5233 27.6348L39.5284 27.6444C39.5929 27.7639 39.6327 27.8952 39.6455 28.0303C39.6583 28.1655 39.6438 28.3018 39.6028 28.4313C39.5618 28.5608 39.4952 28.6807 39.407 28.784C39.3187 28.8872 39.2106 28.9718 39.089 29.0325C38.9675 29.0933 38.8349 29.129 38.6992 29.1376C38.5635 29.1462 38.4275 29.1274 38.2992 29.0825C38.1709 29.0375 38.053 28.9673 37.9524 28.876C37.8518 28.7846 37.7706 28.674 37.7136 28.5508L37.7138 28.5507L37.7089 28.5408C36.8831 26.8932 36.0894 25.8241 35.3363 25.1205L34.5405 24.3769L34.7542 25.4449L36.1601 32.471L36.262 32.9802L36.6958 32.6946C36.9038 32.5576 37.1551 32.5018 37.4017 32.538C37.6483 32.5742 37.8729 32.6997 38.0328 32.8907C38.1927 33.0816 38.2766 33.3246 38.2687 33.5734C38.2609 33.8188 38.1643 34.0529 37.997 34.2324M15.1875 14.9009L37.997 34.2324M37.997 34.2324L37.9859 34.2425L37.9128 34.3093C37.8494 34.367 37.7603 34.4479 37.6639 34.5346C37.4678 34.7111 37.2538 34.9009 37.1581 34.9774C36.4287 35.5502 35.6485 36.0551 34.827 36.4858L34.826 36.4864C32.7649 37.5763 29.7031 38.65 25.6493 38.65C21.5957 38.65 18.5354 37.5764 16.4729 36.4865C15.4506 35.9451 14.6752 35.4007 14.1482 34.9835L13.302 34.2322C13.1297 34.0378 13.0386 33.7845 13.0477 33.5247C13.057 33.2592 13.1702 33.008 13.363 32.825C13.5559 32.642 13.8129 32.5419 14.0788 32.5463C14.3448 32.5507 14.5984 32.6593 14.785 32.8485L14.785 32.8486L14.7898 32.8533C15.0578 33.1148 15.3445 33.3564 15.6477 33.5763L16.0419 33.8623L16.1872 33.3974L19.0126 24.3595L19.0662 24.1883L18.9584 24.0449L18.0139 22.7872L17.8388 22.554L17.5778 22.6842L15.8662 23.5381L15.866 23.5382C15.6755 23.6334 15.4599 23.6663 15.2496 23.6322C15.0394 23.5982 14.8452 23.4989 14.6946 23.3485L12.6473 21.3026L12.6473 21.3026C12.4774 21.1329 12.3734 20.9086 12.3535 20.6695C12.3336 20.4305 12.3992 20.1922 12.5386 19.9969L37.997 34.2324ZM34.4693 34.3646L34.2491 34.4895C33.6893 34.8069 33.0245 35.1335 32.2574 35.4331L31.927 35.5622L31.8024 35.2301L30.0116 30.4602L30.0115 30.4601C29.9391 30.2669 29.8093 30.1003 29.6395 29.9827C29.4698 29.8651 29.2682 29.802 29.0617 29.8019L34.4693 34.3646ZM34.4693 34.3646L34.4196 34.1164M34.4693 34.3646L34.4196 34.1164M34.4196 34.1164L32.6002 25.0239L32.6001 25.0237M34.4196 34.1164L32.6001 25.0237M32.6001 25.0237C32.4843 24.4467 32.139 24.0887 31.71 23.8876C31.3007 23.6958 30.8224 23.6487 30.4058 23.6459H30.4034M32.6001 25.0237L30.4034 23.6459M30.4034 23.6459H24.9668C24.4841 23.6459 24.0726 23.2978 23.9671 22.8126L23.9672 22.8126M30.4034 23.6459L23.9672 22.8126M23.9672 22.8126L23.9651 22.8037L23.9672 22.8126ZM17.8244 15.4639L18.2388 15.5885C18.9919 15.8148 19.9039 16.2782 20.8369 17.2106C22.0849 18.4577 22.8739 19.8712 23.3513 20.9844C23.3514 20.9847 23.3516 20.9851 23.3517 20.9854L23.03 21.1233L17.8244 15.4639ZM17.8244 15.4639L17.7892 15.8952M17.8244 15.4639L17.7892 15.8952M17.7892 15.8952C17.7743 16.0778 17.7102 16.253 17.6036 16.4021C17.6036 16.4021 17.6036 16.4021 17.6036 16.4021L14.8628 20.235L14.6902 20.4763M17.7892 15.8952L14.6902 20.4763M14.6902 20.4763L14.9001 20.6861M14.6902 20.4763L14.9001 20.6861M14.9001 20.6861L15.4338 21.2194L15.612 21.3975M14.9001 20.6861L15.612 21.3975M15.612 21.3975L15.8374 21.285M15.612 21.3975L15.8374 21.285M15.8374 21.285L17.6883 20.3616L17.6885 20.3615M15.8374 21.285L17.6885 20.3615M17.6885 20.3615C17.9011 20.2553 18.1442 20.2269 18.3755 20.2814C18.6068 20.3359 18.8116 20.4698 18.9542 20.6595C18.9542 20.6596 18.9542 20.6596 18.9542 20.6596C18.9543 20.6596 18.9543 20.6597 18.9543 20.6597L21.0014 23.3874L17.6885 20.3615ZM21.1577 24.2979L21.1577 24.2978C21.2057 24.1445 21.2165 23.9821 21.1894 23.8238C21.1622 23.6656 21.0979 23.5161 21.0016 23.3876L21.1577 24.2979ZM21.1577 24.2979L17.931 34.6166L17.8395 34.9091M21.1577 24.2979L17.8395 34.9091M17.8395 34.9091L18.1174 35.0384M17.8395 34.9091L18.1174 35.0384M18.1174 35.0384C18.7469 35.3314 19.4669 35.6158 20.2771 35.8596L20.5906 35.954M18.1174 35.0384L20.5906 35.954M20.5906 35.954L20.7056 35.6475M20.5906 35.954L20.7056 35.6475M20.7056 35.6475L22.652 30.4601L22.652 30.4601M20.7056 35.6475L22.652 30.4601M22.652 30.4601C22.7245 30.2669 22.8543 30.1003 23.024 29.9827M22.652 30.4601L23.024 29.9827M25.6497 36.622C27.1061 36.6219 28.4142 36.4693 29.5766 36.2272L29.9764 36.144L29.833 35.7617L28.4435 32.057L28.3583 31.8299H28.1158H24.5478H24.3053L24.2201 32.057L22.7474 35.9812L22.5928 36.393L23.0288 36.4511C23.8976 36.567 24.7732 36.6241 25.6497 36.622ZM25.6497 36.622C25.6496 36.622 25.6495 36.622 25.6493 36.622V36.272L25.6502 36.622C25.65 36.622 25.6499 36.622 25.6497 36.622ZM29.5053 35.8846L29.1775 36.0075L29.1573 35.9534C29.2747 35.9314 29.3907 35.9084 29.5053 35.8846ZM29.5053 35.8846L29.4339 35.5419C29.4163 35.5456 29.3986 35.5493 29.3808 35.5529L29.5053 35.8846ZM23.075 36.1042L23.1213 35.7573C23.148 35.7608 23.1746 35.7643 23.2013 35.7678L23.075 36.1042ZM23.075 36.1042L23.4027 36.2272L23.4323 36.1484C23.3131 36.1348 23.194 36.1201 23.075 36.1042ZM23.024 29.9827C23.1937 29.8651 23.3953 29.802 23.6019 29.8019M23.024 29.9827L23.6019 29.8019M23.6019 29.8019C23.602 29.8019 23.602 29.8019 23.602 29.8019M23.6019 29.8019H23.602M23.602 29.8019H29.0615H23.602ZM37.9901 34.2399L38.2332 34.4906C38.2108 34.5112 38.1562 34.5611 38.0841 34.6266C37.9746 34.4967 37.9345 34.3275 37.9663 34.2677C37.9704 34.2627 37.9753 34.2568 37.9797 34.2516C37.9839 34.2467 37.9878 34.2424 37.9901 34.2399ZM38.0037 34.2263C38.0049 34.2251 38.0053 34.2247 38.0031 34.2267L38.0037 34.2263Z" fill="#24446B" stroke="#24446B" stroke-width="0.7"/>
</svg>
