<svg width="122" height="170" viewBox="0 0 122 170" fill="none" xmlns="http://www.w3.org/2000/svg">
<path d="M119.369 168.675L61.6306 121.762C61.2632 121.464 60.7368 121.464 60.3694 121.762L2.63059 168.675C1.97708 169.206 1 168.741 1 167.899V2C1 1.44772 1.44771 1 2 1H120C120.552 1 121 1.44771 121 2V167.899C121 168.741 120.023 169.206 119.369 168.675Z" fill="#F3F3F3" stroke="black" stroke-linecap="round"/>
<path d="M61 36.6042L65.5711 52.4548L65.6754 52.8162H66.0516H80.9986L68.8569 62.7551L68.6019 62.9638L68.6932 63.2805L73.3001 79.255L61.3167 69.4457L61 69.1865L60.6833 69.4457L48.6999 79.255L53.3068 63.2805L53.3981 62.9638L53.1431 62.7551L41.0014 52.8162H55.9484H56.3246L56.4289 52.4548L61 36.6042Z" fill="#D9D9D9" stroke="black"/>
</svg>
