<svg width="118" height="169" viewBox="0 0 118 169" fill="none" xmlns="http://www.w3.org/2000/svg">
<path d="M115.719 167.638L59.3236 120.781C58.9532 120.473 58.416 120.473 58.0455 120.781L1.64981 167.638C0.998212 168.18 0.0107422 167.716 0.0107422 166.869V1C0.0107422 0.447715 0.458456 0 1.01074 0H116.358C116.911 0 117.358 0.447711 117.358 0.999995V166.869C117.358 167.716 116.371 168.18 115.719 167.638Z" fill="#24446B"/>
<path d="M115.719 167.638L59.3236 120.781C58.9532 120.473 58.416 120.473 58.0455 120.781L1.64981 167.638C0.998212 168.18 0.0107422 167.716 0.0107422 166.869V1C0.0107422 0.447715 0.458456 0 1.01074 0H116.358C116.911 0 117.358 0.447711 117.358 0.999995V166.869C117.358 167.716 116.371 168.18 115.719 167.638Z" fill="black" fill-opacity="0.2"/>
<path d="M58.6846 39.7649L65.2711 60.3724H86.5856L69.3418 73.1086L75.9284 93.7162L58.6846 80.98L41.4408 93.7162L48.0273 73.1086L30.7835 60.3724H52.098L58.6846 39.7649Z" fill="white"/>
</svg>
